<?xml version="1.0" encoding="utf-8" standalone="no"?>
<!DOCTYPE svg PUBLIC "-//W3C//DTD SVG 1.1//EN"
  "http://www.w3.org/Graphics/SVG/1.1/DTD/svg11.dtd">
<svg xmlns:xlink="http://www.w3.org/1999/xlink" width="576pt" height="432pt" viewBox="0 0 576 432" xmlns="http://www.w3.org/2000/svg" version="1.1">
 <metadata>
  <rdf:RDF xmlns:dc="http://purl.org/dc/elements/1.1/" xmlns:cc="http://creativecommons.org/ns#" xmlns:rdf="http://www.w3.org/1999/02/22-rdf-syntax-ns#">
   <cc:Work>
    <dc:type rdf:resource="http://purl.org/dc/dcmitype/StillImage"/>
    <dc:date>2025-11-19T23:33:44.556161</dc:date>
    <dc:format>image/svg+xml</dc:format>
    <dc:creator>
     <cc:Agent>
      <dc:title>Matplotlib v3.10.0, https://matplotlib.org/</dc:title>
     </cc:Agent>
    </dc:creator>
   </cc:Work>
  </rdf:RDF>
 </metadata>
 <defs>
  <style type="text/css">*{stroke-linejoin: round; stroke-linecap: butt}</style>
 </defs>
 <g id="figure_1">
  <g id="patch_1">
   <path d="M 0 432 
L 576 432 
L 576 0 
L 0 0 
z
" style="fill: #ffffff"/>
  </g>
  <g id="axes_1">
   <g id="patch_2">
    <path d="M 72 384.48 
L 518.4 384.48 
L 518.4 51.84 
L 72 51.84 
z
" style="fill: #ffffff"/>
   </g>
   <g id="matplotlib.axis_1">
    <g id="xtick_1">
     <g id="line2d_1">
      <defs>
       <path id="m5f8c3edefb" d="M 0 0 
L 0 3.5 
" style="stroke: #000000; stroke-width: 0.8"/>
      </defs>
      <g>
       <use xlink:href="#m5f8c3edefb" x="92.290909" y="384.48" style="stroke: #000000; stroke-width: 0.8"/>
      </g>
     </g>
     <g id="text_1">
      <!-- 0.0 -->
      <g transform="translate(84.339347 399.078438) scale(0.1 -0.1)">
       <defs>
        <path id="DejaVuSans-30" d="M 2034 4250 
Q 1547 4250 1301 3770 
Q 1056 3291 1056 2328 
Q 1056 1369 1301 889 
Q 1547 409 2034 409 
Q 2525 409 2770 889 
Q 3016 1369 3016 2328 
Q 3016 3291 2770 3770 
Q 2525 4250 2034 4250 
z
M 2034 4750 
Q 2819 4750 3233 4129 
Q 3647 3509 3647 2328 
Q 3647 1150 3233 529 
Q 2819 -91 2034 -91 
Q 1250 -91 836 529 
Q 422 1150 422 2328 
Q 422 3509 836 4129 
Q 1250 4750 2034 4750 
z
" transform="scale(0.015625)"/>
        <path id="DejaVuSans-2e" d="M 684 794 
L 1344 794 
L 1344 0 
L 684 0 
L 684 794 
z
" transform="scale(0.015625)"/>
       </defs>
       <use xlink:href="#DejaVuSans-30"/>
       <use xlink:href="#DejaVuSans-2e" transform="translate(63.623047 0)"/>
       <use xlink:href="#DejaVuSans-30" transform="translate(95.410156 0)"/>
      </g>
     </g>
    </g>
    <g id="xtick_2">
     <g id="line2d_2">
      <g>
       <use xlink:href="#m5f8c3edefb" x="173.454545" y="384.48" style="stroke: #000000; stroke-width: 0.8"/>
      </g>
     </g>
     <g id="text_2">
      <!-- 0.2 -->
      <g transform="translate(165.502983 399.078438) scale(0.1 -0.1)">
       <defs>
        <path id="DejaVuSans-32" d="M 1228 531 
L 3431 531 
L 3431 0 
L 469 0 
L 469 531 
Q 828 903 1448 1529 
Q 2069 2156 2228 2338 
Q 2531 2678 2651 2914 
Q 2772 3150 2772 3378 
Q 2772 3750 2511 3984 
Q 2250 4219 1831 4219 
Q 1534 4219 1204 4116 
Q 875 4013 500 3803 
L 500 4441 
Q 881 4594 1212 4672 
Q 1544 4750 1819 4750 
Q 2544 4750 2975 4387 
Q 3406 4025 3406 3419 
Q 3406 3131 3298 2873 
Q 3191 2616 2906 2266 
Q 2828 2175 2409 1742 
Q 1991 1309 1228 531 
z
" transform="scale(0.015625)"/>
       </defs>
       <use xlink:href="#DejaVuSans-30"/>
       <use xlink:href="#DejaVuSans-2e" transform="translate(63.623047 0)"/>
       <use xlink:href="#DejaVuSans-32" transform="translate(95.410156 0)"/>
      </g>
     </g>
    </g>
    <g id="xtick_3">
     <g id="line2d_3">
      <g>
       <use xlink:href="#m5f8c3edefb" x="254.618182" y="384.48" style="stroke: #000000; stroke-width: 0.8"/>
      </g>
     </g>
     <g id="text_3">
      <!-- 0.4 -->
      <g transform="translate(246.666619 399.078438) scale(0.1 -0.1)">
       <defs>
        <path id="DejaVuSans-34" d="M 2419 4116 
L 825 1625 
L 2419 1625 
L 2419 4116 
z
M 2253 4666 
L 3047 4666 
L 3047 1625 
L 3713 1625 
L 3713 1100 
L 3047 1100 
L 3047 0 
L 2419 0 
L 2419 1100 
L 313 1100 
L 313 1709 
L 2253 4666 
z
" transform="scale(0.015625)"/>
       </defs>
       <use xlink:href="#DejaVuSans-30"/>
       <use xlink:href="#DejaVuSans-2e" transform="translate(63.623047 0)"/>
       <use xlink:href="#DejaVuSans-34" transform="translate(95.410156 0)"/>
      </g>
     </g>
    </g>
    <g id="xtick_4">
     <g id="line2d_4">
      <g>
       <use xlink:href="#m5f8c3edefb" x="335.781818" y="384.48" style="stroke: #000000; stroke-width: 0.8"/>
      </g>
     </g>
     <g id="text_4">
      <!-- 0.6 -->
      <g transform="translate(327.830256 399.078438) scale(0.1 -0.1)">
       <defs>
        <path id="DejaVuSans-36" d="M 2113 2584 
Q 1688 2584 1439 2293 
Q 1191 2003 1191 1497 
Q 1191 994 1439 701 
Q 1688 409 2113 409 
Q 2538 409 2786 701 
Q 3034 994 3034 1497 
Q 3034 2003 2786 2293 
Q 2538 2584 2113 2584 
z
M 3366 4563 
L 3366 3988 
Q 3128 4100 2886 4159 
Q 2644 4219 2406 4219 
Q 1781 4219 1451 3797 
Q 1122 3375 1075 2522 
Q 1259 2794 1537 2939 
Q 1816 3084 2150 3084 
Q 2853 3084 3261 2657 
Q 3669 2231 3669 1497 
Q 3669 778 3244 343 
Q 2819 -91 2113 -91 
Q 1303 -91 875 529 
Q 447 1150 447 2328 
Q 447 3434 972 4092 
Q 1497 4750 2381 4750 
Q 2619 4750 2861 4703 
Q 3103 4656 3366 4563 
z
" transform="scale(0.015625)"/>
       </defs>
       <use xlink:href="#DejaVuSans-30"/>
       <use xlink:href="#DejaVuSans-2e" transform="translate(63.623047 0)"/>
       <use xlink:href="#DejaVuSans-36" transform="translate(95.410156 0)"/>
      </g>
     </g>
    </g>
    <g id="xtick_5">
     <g id="line2d_5">
      <g>
       <use xlink:href="#m5f8c3edefb" x="416.945455" y="384.48" style="stroke: #000000; stroke-width: 0.8"/>
      </g>
     </g>
     <g id="text_5">
      <!-- 0.8 -->
      <g transform="translate(408.993892 399.078438) scale(0.1 -0.1)">
       <defs>
        <path id="DejaVuSans-38" d="M 2034 2216 
Q 1584 2216 1326 1975 
Q 1069 1734 1069 1313 
Q 1069 891 1326 650 
Q 1584 409 2034 409 
Q 2484 409 2743 651 
Q 3003 894 3003 1313 
Q 3003 1734 2745 1975 
Q 2488 2216 2034 2216 
z
M 1403 2484 
Q 997 2584 770 2862 
Q 544 3141 544 3541 
Q 544 4100 942 4425 
Q 1341 4750 2034 4750 
Q 2731 4750 3128 4425 
Q 3525 4100 3525 3541 
Q 3525 3141 3298 2862 
Q 3072 2584 2669 2484 
Q 3125 2378 3379 2068 
Q 3634 1759 3634 1313 
Q 3634 634 3220 271 
Q 2806 -91 2034 -91 
Q 1263 -91 848 271 
Q 434 634 434 1313 
Q 434 1759 690 2068 
Q 947 2378 1403 2484 
z
M 1172 3481 
Q 1172 3119 1398 2916 
Q 1625 2713 2034 2713 
Q 2441 2713 2670 2916 
Q 2900 3119 2900 3481 
Q 2900 3844 2670 4047 
Q 2441 4250 2034 4250 
Q 1625 4250 1398 4047 
Q 1172 3844 1172 3481 
z
" transform="scale(0.015625)"/>
       </defs>
       <use xlink:href="#DejaVuSans-30"/>
       <use xlink:href="#DejaVuSans-2e" transform="translate(63.623047 0)"/>
       <use xlink:href="#DejaVuSans-38" transform="translate(95.410156 0)"/>
      </g>
     </g>
    </g>
    <g id="xtick_6">
     <g id="line2d_6">
      <g>
       <use xlink:href="#m5f8c3edefb" x="498.109091" y="384.48" style="stroke: #000000; stroke-width: 0.8"/>
      </g>
     </g>
     <g id="text_6">
      <!-- 1.0 -->
      <g transform="translate(490.157528 399.078438) scale(0.1 -0.1)">
       <defs>
        <path id="DejaVuSans-31" d="M 794 531 
L 1825 531 
L 1825 4091 
L 703 3866 
L 703 4441 
L 1819 4666 
L 2450 4666 
L 2450 531 
L 3481 531 
L 3481 0 
L 794 0 
L 794 531 
z
" transform="scale(0.015625)"/>
       </defs>
       <use xlink:href="#DejaVuSans-31"/>
       <use xlink:href="#DejaVuSans-2e" transform="translate(63.623047 0)"/>
       <use xlink:href="#DejaVuSans-30" transform="translate(95.410156 0)"/>
      </g>
     </g>
    </g>
   </g>
   <g id="matplotlib.axis_2">
    <g id="ytick_1">
     <g id="line2d_7">
      <defs>
       <path id="mb4ebd577a8" d="M 0 0 
L -3.5 0 
" style="stroke: #000000; stroke-width: 0.8"/>
      </defs>
      <g>
       <use xlink:href="#mb4ebd577a8" x="72" y="369.36" style="stroke: #000000; stroke-width: 0.8"/>
      </g>
     </g>
     <g id="text_7">
      <!-- 0.0 -->
      <g transform="translate(49.096875 373.159219) scale(0.1 -0.1)">
       <use xlink:href="#DejaVuSans-30"/>
       <use xlink:href="#DejaVuSans-2e" transform="translate(63.623047 0)"/>
       <use xlink:href="#DejaVuSans-30" transform="translate(95.410156 0)"/>
      </g>
     </g>
    </g>
    <g id="ytick_2">
     <g id="line2d_8">
      <g>
       <use xlink:href="#mb4ebd577a8" x="72" y="308.88" style="stroke: #000000; stroke-width: 0.8"/>
      </g>
     </g>
     <g id="text_8">
      <!-- 0.2 -->
      <g transform="translate(49.096875 312.679219) scale(0.1 -0.1)">
       <use xlink:href="#DejaVuSans-30"/>
       <use xlink:href="#DejaVuSans-2e" transform="translate(63.623047 0)"/>
       <use xlink:href="#DejaVuSans-32" transform="translate(95.410156 0)"/>
      </g>
     </g>
    </g>
    <g id="ytick_3">
     <g id="line2d_9">
      <g>
       <use xlink:href="#mb4ebd577a8" x="72" y="248.4" style="stroke: #000000; stroke-width: 0.8"/>
      </g>
     </g>
     <g id="text_9">
      <!-- 0.4 -->
      <g transform="translate(49.096875 252.199219) scale(0.1 -0.1)">
       <use xlink:href="#DejaVuSans-30"/>
       <use xlink:href="#DejaVuSans-2e" transform="translate(63.623047 0)"/>
       <use xlink:href="#DejaVuSans-34" transform="translate(95.410156 0)"/>
      </g>
     </g>
    </g>
    <g id="ytick_4">
     <g id="line2d_10">
      <g>
       <use xlink:href="#mb4ebd577a8" x="72" y="187.92" style="stroke: #000000; stroke-width: 0.8"/>
      </g>
     </g>
     <g id="text_10">
      <!-- 0.6 -->
      <g transform="translate(49.096875 191.719219) scale(0.1 -0.1)">
       <use xlink:href="#DejaVuSans-30"/>
       <use xlink:href="#DejaVuSans-2e" transform="translate(63.623047 0)"/>
       <use xlink:href="#DejaVuSans-36" transform="translate(95.410156 0)"/>
      </g>
     </g>
    </g>
    <g id="ytick_5">
     <g id="line2d_11">
      <g>
       <use xlink:href="#mb4ebd577a8" x="72" y="127.44" style="stroke: #000000; stroke-width: 0.8"/>
      </g>
     </g>
     <g id="text_11">
      <!-- 0.8 -->
      <g transform="translate(49.096875 131.239219) scale(0.1 -0.1)">
       <use xlink:href="#DejaVuSans-30"/>
       <use xlink:href="#DejaVuSans-2e" transform="translate(63.623047 0)"/>
       <use xlink:href="#DejaVuSans-38" transform="translate(95.410156 0)"/>
      </g>
     </g>
    </g>
    <g id="ytick_6">
     <g id="line2d_12">
      <g>
       <use xlink:href="#mb4ebd577a8" x="72" y="66.96" style="stroke: #000000; stroke-width: 0.8"/>
      </g>
     </g>
     <g id="text_12">
      <!-- 1.0 -->
      <g transform="translate(49.096875 70.759219) scale(0.1 -0.1)">
       <use xlink:href="#DejaVuSans-31"/>
       <use xlink:href="#DejaVuSans-2e" transform="translate(63.623047 0)"/>
       <use xlink:href="#DejaVuSans-30" transform="translate(95.410156 0)"/>
      </g>
     </g>
    </g>
   </g>
   <g id="line2d_13">
    <path d="M 92.290909 369.36 
L 92.360974 368.771225 
L 93.359405 359.72961 
L 93.376921 359.618443 
L 93.482019 358.926735 
L 93.499535 358.823802 
L 93.587117 357.852117 
L 93.657182 357.720363 
L 93.674699 357.452738 
L 93.779797 356.567516 
L 93.814829 356.481052 
L 93.919927 354.788838 
L 93.95496 354.788838 
L 93.95496 354.685905 
L 94.042541 353.932437 
L 94.077574 353.932437 
L 94.077574 353.829504 
L 94.182672 352.079647 
L 94.200188 352.079647 
L 94.200188 351.976714 
L 94.305286 351.03385 
L 94.375352 350.428606 
L 94.48045 349.596909 
L 94.497966 349.596909 
L 94.497966 349.514563 
L 94.603064 348.007627 
L 94.638096 347.847052 
L 94.743194 346.636562 
L 94.795743 346.117781 
L 95.040972 343.618574 
L 95.058488 343.536227 
L 95.163586 342.630419 
L 95.181102 342.535721 
L 95.2862 341.436399 
L 95.426331 340.781747 
L 95.531429 339.822413 
L 95.583978 339.633017 
L 95.689076 338.73956 
L 95.706592 338.73956 
L 95.706592 338.669566 
L 95.81169 337.496133 
L 95.829206 337.496133 
L 95.829206 337.389083 
L 95.934304 336.577972 
L 95.969337 336.561503 
L 95.969337 336.47504 
L 96.074435 335.692751 
L 96.126984 335.622756 
L 96.126984 335.585701 
L 96.232082 334.593429 
L 96.267115 334.589311 
L 96.267115 334.519317 
L 96.372212 332.822985 
L 96.407245 332.748873 
L 96.512343 331.40663 
L 96.582408 331.328401 
L 96.687506 330.134381 
L 96.792604 329.928516 
L 96.897702 328.862132 
L 96.932735 328.837428 
L 97.037833 327.618704 
L 97.072865 327.515772 
L 97.072865 327.511654 
L 97.177963 326.614081 
L 97.212996 326.482327 
L 97.318094 325.621809 
L 97.33561 325.621809 
L 97.33561 325.531228 
L 97.405676 324.699531 
L 97.458225 324.658358 
L 97.563322 323.386109 
L 97.580839 323.386109 
L 97.580839 323.287294 
L 97.66842 322.612055 
L 97.685937 322.612055 
L 97.703453 322.595585 
L 97.808551 321.969754 
L 97.843584 321.940933 
L 97.948682 321.294515 
L 97.983714 321.261577 
L 97.983714 321.187465 
L 98.088812 320.722209 
L 98.106328 320.722209 
L 98.106328 320.619276 
L 98.211426 320.055205 
L 98.263975 319.964624 
L 98.263975 319.952272 
L 98.369073 318.828246 
L 98.421622 318.782956 
L 98.52672 317.864795 
L 98.579269 317.782449 
L 98.684367 316.773708 
L 98.701883 316.773708 
L 98.701883 316.695479 
L 98.806981 315.10208 
L 98.877047 315.048555 
L 98.982145 314.500953 
L 98.999661 314.500953 
L 98.999661 314.484483 
L 99.104759 313.796892 
L 99.139792 313.69396 
L 99.24489 313.022838 
L 99.279922 312.985782 
L 99.38502 312.211728 
L 99.402536 312.211728 
L 99.490118 311.231808 
L 99.560183 311.149462 
L 99.665281 310.445402 
L 99.71783 310.363055 
L 99.71783 310.338351 
L 99.822928 309.745459 
L 99.840445 309.745459 
L 99.945542 309.020812 
L 99.980575 309.012577 
L 99.980575 308.942583 
L 100.085673 307.954429 
L 100.138222 307.867965 
L 100.24332 306.867459 
L 100.295869 306.793347 
L 100.400967 306.245745 
L 100.471032 306.188102 
L 100.57613 305.516981 
L 100.611163 305.422282 
L 100.716261 303.927699 
L 100.733777 303.923581 
L 100.838875 302.733679 
L 100.891424 302.651332 
L 100.891424 302.630746 
L 100.996522 302.017267 
L 101.031554 301.943155 
L 101.031554 301.910216 
L 101.136652 300.753252 
L 101.154169 300.753252 
L 101.259267 299.732159 
L 101.311816 299.678634 
L 101.416914 298.916932 
L 101.43443 298.916932 
L 101.486979 298.39815 
L 101.539528 298.39815 
L 101.574561 298.332274 
L 101.679658 297.899956 
L 101.697175 297.899956 
L 101.697175 297.879369 
L 101.802273 296.998265 
L 101.819789 296.998265 
L 101.924887 296.261266 
L 101.95992 296.191272 
L 102.065018 295.392514 
L 102.10005 295.338989 
L 102.10005 295.310167 
L 102.205148 294.906671 
L 102.240181 294.824325 
L 102.345279 294.140851 
L 102.397828 294.062622 
L 102.502926 293.725003 
L 102.537958 293.679712 
L 102.537958 293.659126 
L 102.643056 293.218574 
L 102.695605 293.07035 
L 102.800703 292.131604 
L 102.835736 292.061609 
L 102.835736 292.028671 
L 102.940834 291.374018 
L 103.045932 290.908762 
L 103.15103 290.550556 
L 103.168546 290.550556 
L 103.273644 289.673569 
L 103.308677 289.599458 
L 103.413774 289.265955 
L 103.431291 289.265955 
L 103.431291 289.237134 
L 103.536389 288.586599 
L 103.553905 288.586599 
L 103.553905 288.57013 
L 103.659003 288.117226 
L 103.711552 288.03488 
L 103.81665 287.166127 
L 103.869199 287.129071 
L 103.939264 286.515592 
L 103.991813 286.482653 
L 104.096911 285.852705 
L 104.114427 285.852705 
L 104.219525 285.037477 
L 104.237042 285.037477 
L 104.237042 284.975718 
L 104.307107 284.732796 
L 104.464754 284.576339 
L 104.569852 284.22225 
L 104.587368 284.22225 
L 104.692466 283.51819 
L 104.727499 283.514072 
L 104.727499 283.419374 
L 104.832597 282.793543 
L 104.867629 282.727666 
L 104.867629 282.69061 
L 104.972727 281.77245 
L 105.00776 281.681869 
L 105.112858 280.883111 
L 105.147891 280.829586 
L 105.147891 280.784295 
L 105.252988 280.417855 
L 105.305537 280.34786 
L 105.410635 279.240304 
L 105.445668 279.174427 
L 105.550766 278.923271 
L 105.585799 278.89445 
L 105.690897 278.124513 
L 105.725929 278.029815 
L 105.725929 278.017463 
L 105.760962 277.910413 
L 105.86606 277.473978 
L 105.901092 277.354576 
L 106.00619 276.325248 
L 106.093772 276.23055 
L 106.093772 276.218198 
L 106.181354 276.111148 
L 106.216386 276.102913 
L 106.321484 275.868226 
L 106.374033 275.769411 
L 106.479131 274.859485 
L 106.496647 274.859485 
L 106.496647 274.789491 
L 106.584229 274.472458 
L 106.689327 273.756046 
L 106.72436 273.694286 
L 106.829458 273.286673 
L 106.846974 273.286673 
L 106.846974 273.249617 
L 106.952072 272.726718 
L 106.969588 272.726718 
L 107.074686 272.051479 
L 107.127235 271.985602 
L 107.127235 271.969133 
L 107.232333 271.689156 
L 107.284882 271.582106 
L 107.38998 271.088029 
L 107.460045 270.972744 
L 107.565143 270.453963 
L 107.617692 270.367499 
L 107.617692 270.346913 
L 107.72279 270.042232 
L 107.740306 270.042232 
L 107.740306 270.013411 
L 107.845404 269.630501 
L 107.880437 269.576976 
L 107.985535 269.284647 
L 108.020568 269.169362 
L 108.125665 268.662933 
L 108.178214 268.597056 
L 108.283312 268.271788 
L 108.318345 268.168855 
L 108.423443 267.645957 
L 108.458476 267.621253 
L 108.458476 267.547142 
L 108.563574 266.917193 
L 108.616123 266.851316 
L 108.72122 266.225485 
L 108.738737 266.225485 
L 108.738737 266.126669 
L 108.843835 265.739642 
L 108.896384 265.669648 
L 109.001482 265.101459 
L 109.089063 264.862655 
L 109.194161 263.915674 
L 109.24671 263.882735 
L 109.24671 263.849797 
L 109.334292 263.495708 
L 109.421873 263.199261 
L 109.526971 262.614603 
L 109.597037 262.606369 
L 109.597037 262.519905 
L 109.702135 261.97642 
L 109.789716 261.811728 
L 109.894814 261.12002 
L 109.964879 261.01297 
L 110.069977 260.144217 
L 110.087494 260.144217 
L 110.087494 260.090692 
L 110.192592 259.580145 
L 110.227624 259.555442 
L 110.227624 259.497799 
L 110.332722 258.600225 
L 110.420304 258.526114 
L 110.525402 258.019685 
L 110.542918 258.019685 
L 110.542918 257.994981 
L 110.648016 257.002709 
L 110.683049 256.96977 
L 110.683049 256.908011 
L 110.788147 256.500397 
L 110.805663 256.500397 
L 110.805663 256.393347 
L 110.910761 256.022789 
L 110.96331 255.932208 
L 110.96331 255.919856 
L 111.050892 255.746929 
L 111.120957 255.660466 
L 111.120957 255.652231 
L 111.226055 255.145802 
L 111.313636 255.038752 
L 111.418734 254.548792 
L 111.453767 254.515853 
L 111.558865 254.112357 
L 111.646447 254.04648 
L 111.751544 253.61828 
L 111.786577 253.519464 
L 111.891675 253.177727 
L 111.944224 253.078912 
L 112.049322 252.7907 
L 112.101871 252.704237 
L 112.171936 252.218394 
L 112.242002 252.160752 
L 112.329583 251.460809 
L 112.399648 251.415518 
L 112.504746 251.15201 
L 112.574812 251.028491 
L 112.67991 250.583822 
L 112.732459 250.501475 
L 112.837557 250.027985 
L 112.907622 250.01975 
L 113.01272 249.665661 
L 113.065269 249.645075 
L 113.170367 249.245696 
L 113.205399 249.196288 
L 113.205399 249.142763 
L 113.310497 248.751618 
L 113.380563 248.698093 
L 113.380563 248.677507 
L 113.555726 248.150491 
L 113.660824 247.471135 
L 113.67834 247.471135 
L 113.67834 247.397023 
L 113.783438 246.861773 
L 113.853503 246.80413 
L 113.853503 246.754723 
L 113.958601 246.396517 
L 114.01115 246.289467 
L 114.116248 246.046545 
L 114.133764 246.046545 
L 114.133764 245.955964 
L 114.238862 245.568937 
L 114.256379 245.568937 
L 114.361477 245.264256 
L 114.414026 245.2272 
L 114.414026 245.165441 
L 114.519124 244.626073 
L 114.554156 244.580783 
L 114.659254 244.218459 
L 114.711803 244.14023 
L 114.816901 243.765555 
L 114.834417 243.765555 
L 114.834417 243.658505 
L 114.921999 243.143841 
L 114.957032 243.143841 
L 114.957032 243.131489 
L 115.06213 242.843278 
L 115.114679 242.752697 
L 115.114679 242.740345 
L 115.219776 241.986877 
L 115.289842 241.888061 
L 115.39494 241.698665 
L 115.500038 241.608084 
L 115.605136 241.38575 
L 115.640168 241.348694 
L 115.745266 240.924611 
L 115.797815 240.89579 
L 115.797815 240.866968 
L 115.902913 240.525232 
L 115.972978 240.479941 
L 116.078076 240.179378 
L 116.095593 240.179378 
L 116.095593 240.092914 
L 116.200691 239.821171 
L 116.25324 239.751177 
L 116.358338 239.277686 
L 116.39337 239.19534 
L 116.39337 239.170636 
L 116.498468 238.787726 
L 116.515984 238.783609 
L 116.621082 238.437755 
L 116.638599 238.437755 
L 116.638599 238.355409 
L 116.743697 237.844862 
L 116.778729 237.836628 
L 116.883827 237.441366 
L 116.901344 237.441366 
L 116.901344 237.40431 
L 117.006441 236.832004 
L 117.05899 236.76201 
L 117.164088 236.350279 
L 117.269186 236.259698 
L 117.374284 235.885022 
L 117.44435 235.860319 
L 117.44435 235.777972 
L 117.549448 235.325068 
L 117.601996 235.296247 
L 117.601996 235.242722 
L 117.707094 234.798052 
L 117.759643 234.773349 
L 117.759643 234.691002 
L 117.864741 234.31221 
L 117.882258 234.31221 
L 117.882258 234.262802 
L 117.987356 233.921065 
L 118.127486 233.826367 
L 118.232584 233.513452 
L 118.302649 233.455809 
L 118.302649 233.406401 
L 118.407747 233.138776 
L 118.425264 233.138776 
L 118.425264 233.039961 
L 118.530362 232.607643 
L 118.582911 232.517062 
L 118.688009 232.010633 
L 118.793106 231.920052 
L 118.898204 231.520673 
L 118.933237 231.442444 
L 119.038335 231.018361 
L 119.1084 230.919546 
L 119.213498 230.396647 
L 119.283564 230.314301 
L 119.388661 230.124905 
L 119.423694 230.087849 
L 119.423694 230.034324 
L 119.528792 229.799637 
L 119.581341 229.770816 
L 119.581341 229.75023 
L 119.686439 229.429079 
L 119.756504 229.35085 
L 119.861602 229.099694 
L 119.9667 229.004996 
L 120.071798 228.613852 
L 120.124347 228.510919 
L 120.229445 227.963317 
L 120.29951 227.905674 
L 120.29951 227.856267 
L 120.404608 227.699809 
L 120.474674 227.629815 
L 120.474674 227.596876 
L 120.579771 227.325134 
L 120.63232 227.230435 
L 120.737418 226.942224 
L 120.789967 226.884581 
L 120.895065 226.658129 
L 120.982647 226.600487 
L 121.087745 226.336979 
L 121.15781 226.229929 
L 121.262908 225.838784 
L 121.315457 225.805846 
L 121.315457 225.735852 
L 121.420555 225.344707 
L 121.508137 225.270596 
L 121.595718 224.95768 
L 121.840947 224.817691 
L 121.946045 224.488307 
L 122.033626 224.385374 
L 122.138724 223.907766 
L 122.20879 223.800716 
L 122.296371 223.582498 
L 122.34892 223.553677 
L 122.454018 223.253113 
L 122.506567 223.150181 
L 122.611665 222.960784 
L 122.734279 222.824913 
L 122.839377 222.586109 
L 122.87441 222.540819 
L 122.979508 222.075562 
L 123.032057 222.038507 
L 123.032057 221.968512 
L 123.137155 221.836758 
L 123.172187 221.820289 
L 123.277285 221.379737 
L 123.294802 221.379737 
L 123.3999 220.749788 
L 123.452449 220.675677 
L 123.557546 220.346292 
L 123.610095 220.243359 
L 123.697677 219.806924 
L 123.750226 219.708109 
L 123.855324 219.506361 
L 123.907873 219.428132 
L 124.012971 219.111099 
L 124.135585 219.020518 
L 124.240683 218.551145 
L 124.310748 218.485268 
L 124.310748 218.452329 
L 124.415846 218.061185 
L 124.468395 217.966486 
L 124.573493 217.657688 
L 124.608526 217.56299 
L 124.713624 217.332421 
L 124.766173 217.237722 
L 124.871271 216.957745 
L 124.906303 216.916572 
L 125.011401 216.595422 
L 125.028918 216.595422 
L 125.028918 216.574835 
L 125.116499 216.216629 
L 125.134016 216.216629 
L 125.221597 216.117814 
L 125.326695 215.483748 
L 125.39676 215.380815 
L 125.501858 215.104955 
L 125.554407 215.018492 
L 125.659505 214.433834 
L 125.677022 214.433834 
L 125.78212 214.116801 
L 125.852185 214.02622 
L 125.852185 214.013868 
L 125.957283 213.738008 
L 126.184995 213.581551 
L 126.290093 213.136881 
L 126.342642 213.042183 
L 126.44774 212.568692 
L 126.500289 212.51105 
L 126.500289 212.486346 
L 126.535321 212.391648 
L 126.868132 212.239307 
L 126.97323 211.95933 
L 126.990746 211.95933 
L 126.990746 211.876984 
L 127.095844 211.691705 
L 127.148393 211.605241 
L 127.253491 211.395259 
L 127.271007 211.395259 
L 127.358589 211.123516 
L 127.498719 211.020583 
L 127.603817 210.8106 
L 127.63885 210.8106 
L 127.63885 210.70355 
L 127.726431 210.324758 
L 127.796497 210.316523 
L 127.796497 210.221825 
L 127.901595 210.007725 
L 127.97166 209.855384 
L 128.076758 209.377776 
L 128.146823 209.316017 
L 128.251921 208.998984 
L 128.339503 208.900168 
L 128.427084 208.793118 
L 128.444601 208.793118 
L 128.49715 208.710772 
L 128.602248 208.430795 
L 128.689829 208.307276 
L 128.794927 207.842019 
L 128.812443 207.842019 
L 128.812443 207.809081 
L 128.917541 207.524987 
L 128.97009 207.500283 
L 128.97009 207.426171 
L 129.075188 207.220306 
L 129.127737 207.199719 
L 129.127737 207.113255 
L 129.215319 206.870334 
L 129.302901 206.767401 
L 129.390482 206.269207 
L 129.460547 206.182743 
L 129.565645 205.803951 
L 129.583162 205.803951 
L 129.68826 205.4828 
L 129.758325 205.404572 
L 129.863423 205.0546 
L 129.986037 204.951667 
L 130.091135 204.688159 
L 130.143684 204.642869 
L 130.248782 204.128205 
L 130.301331 204.103501 
L 130.301331 204.045859 
L 130.406429 203.81529 
L 130.476494 203.757647 
L 130.581592 203.510609 
L 130.651657 203.481787 
L 130.756755 203.086526 
L 130.791788 203.070056 
L 130.791788 202.979476 
L 130.896886 202.814783 
L 130.949435 202.77361 
L 130.949435 202.71185 
L 131.054533 202.592448 
L 131.177147 202.518337 
L 131.282245 201.888388 
L 131.35231 201.814277 
L 131.457408 201.402546 
L 131.580023 201.332551 
L 131.685121 201.052574 
L 131.720153 201.007284 
L 131.825251 200.871412 
L 131.8778 200.76848 
L 131.982898 200.488503 
L 132.017931 200.381452 
L 132.123029 199.973839 
L 132.228127 199.854437 
L 132.315708 199.648571 
L 132.595969 199.479761 
L 132.701067 198.903338 
L 132.788649 198.820992 
L 132.893747 198.709824 
L 132.963812 198.615126 
L 133.06891 198.549249 
L 133.138975 198.454551 
L 133.244073 198.195161 
L 133.26159 198.195161 
L 133.26159 198.137518 
L 133.366688 197.919301 
L 133.524335 197.816368 
L 133.629432 197.680497 
L 133.681981 197.606385 
L 133.769563 197.470514 
L 133.822112 197.379933 
L 133.92721 197.0629 
L 133.979759 197.029962 
L 133.979759 196.968202 
L 134.084857 196.708811 
L 134.102373 196.708811 
L 134.102373 196.605879 
L 134.154922 196.437069 
L 134.295053 196.375309 
L 134.400151 195.963578 
L 134.470216 195.881232 
L 134.575314 195.691836 
L 134.645379 195.621841 
L 134.750477 195.325395 
L 134.838059 195.222462 
L 134.943157 194.95072 
L 135.048255 194.921899 
L 135.048255 194.897195 
L 135.153353 194.641921 
L 135.293483 194.538989 
L 135.381065 194.254894 
L 135.433614 194.205486 
L 135.433614 194.164313 
L 135.538712 193.839046 
L 135.661326 193.74023 
L 135.661326 193.736113 
L 135.766424 193.472605 
L 135.818973 193.447901 
L 135.818973 193.369672 
L 135.924071 193.167924 
L 136.029169 193.089695 
L 136.029169 193.073226 
L 136.134267 192.706785 
L 136.221848 192.603853 
L 136.326946 192.484451 
L 136.397012 192.459747 
L 136.397012 192.397987 
L 136.502109 192.216825 
L 136.554658 192.196239 
L 136.659756 192.043898 
L 136.677273 192.043898 
L 136.677273 191.965669 
L 136.764854 191.739217 
L 136.852436 191.640402 
L 136.957534 191.438654 
L 137.080148 191.356307 
L 137.080148 191.335721 
L 137.185246 191.13809 
L 137.220279 191.088682 
L 137.220279 191.055744 
L 137.325377 190.672834 
L 137.360409 190.631661 
L 137.360409 190.569901 
L 137.553089 190.413443 
L 137.658187 190.248751 
L 137.763285 190.141701 
L 137.868383 190.014064 
L 138.008513 189.923483 
L 138.113611 189.77526 
L 138.376356 189.680562 
L 138.463938 189.445875 
L 138.569036 189.39235 
L 138.569036 189.338825 
L 138.674134 188.96415 
L 138.779232 188.890038 
L 138.884329 188.725346 
L 139.182107 188.552419 
L 139.287205 188.338319 
L 139.339754 188.313615 
L 139.444852 187.873063 
L 139.54995 187.774247 
L 139.637531 187.486035 
L 139.812695 187.391337 
L 139.812695 187.383103 
L 139.88276 187.329578 
L 139.987858 187.000193 
L 140.022891 186.979606 
L 140.022891 186.926081 
L 140.127988 186.707864 
L 140.198054 186.613166 
L 140.303152 186.403183 
L 140.355701 186.320837 
L 140.460799 186.106736 
L 140.513348 186.016156 
L 140.618446 185.777352 
L 140.723543 185.682653 
L 140.811125 185.468553 
L 140.88119 185.390324 
L 140.88119 185.36562 
L 140.986288 185.139168 
L 141.038837 185.081526 
L 141.038837 185.073291 
L 141.143935 184.772728 
L 141.354131 184.67803 
L 141.459229 184.344527 
L 141.581843 184.237477 
L 141.686941 184.052198 
L 141.792039 183.953383 
L 141.897137 183.57459 
L 142.054784 183.516948 
L 142.142366 183.393429 
L 142.282496 183.290496 
L 142.387594 182.97758 
L 142.422627 182.924055 
L 142.422627 182.882882 
L 142.510208 182.767597 
L 142.580274 182.664665 
L 142.650339 182.524676 
L 142.720404 182.491738 
L 142.825502 181.927666 
L 142.913084 181.84532 
L 143.018182 181.585929 
L 143.175829 181.499466 
L 143.280927 181.18655 
L 143.368508 181.095969 
L 143.473606 180.873635 
L 143.561188 180.766584 
L 143.666286 180.573071 
L 143.753867 180.474255 
L 143.858965 180.305446 
L 143.929031 180.202513 
L 144.034129 180.046055 
L 144.086678 180.000765 
L 144.191775 179.654911 
L 144.31439 179.54786 
L 144.419488 179.370816 
L 144.489553 179.300822 
L 144.489553 179.263766 
L 144.577135 179.140247 
L 144.682233 178.922029 
L 144.822363 178.814979 
L 144.927461 178.604996 
L 144.962494 178.539119 
L 145.067592 178.292081 
L 145.137657 178.189148 
L 145.242755 178.119154 
L 145.31282 178.069746 
L 145.31282 178.020338 
L 145.417918 177.843294 
L 145.5055 177.769182 
L 145.610598 177.345099 
L 145.715696 177.275105 
L 145.820794 177.11453 
L 145.97844 177.019832 
L 146.083538 176.834553 
L 146.17112 176.735737 
L 146.258702 176.484581 
L 146.381316 176.377531 
L 146.486414 176.155196 
L 146.573995 176.07285 
L 146.679093 175.875219 
L 146.784191 175.784639 
L 146.889289 175.549952 
L 147.02942 175.451136 
L 147.134518 175.269975 
L 147.292165 175.179394 
L 147.397263 175.051757 
L 147.55491 174.961176 
L 147.55491 174.944707 
L 147.624975 174.677082 
L 147.765105 174.598853 
L 147.870203 174.425926 
L 148.097916 174.322993 
L 148.203014 174.178887 
L 148.255563 174.145949 
L 148.343144 173.903028 
L 148.55334 173.795977 
L 148.640922 173.655989 
L 148.658438 173.655989 
L 148.763536 173.528352 
L 148.868634 173.343073 
L 148.938699 173.25661 
L 148.938699 173.248375 
L 149.043797 173.071331 
L 149.07883 172.997219 
L 149.07883 172.972515 
L 149.183928 172.791354 
L 149.271509 172.684304 
L 149.376607 172.540198 
L 149.481705 172.437265 
L 149.586803 172.186109 
L 149.656868 172.079059 
L 149.761966 171.972009 
L 149.849548 171.881428 
L 149.954646 171.622037 
L 149.989679 171.535574 
L 150.059744 171.440876 
L 150.164842 171.35853 
L 150.26994 171.0662 
L 150.322489 171.008558 
L 150.427587 170.609179 
L 150.515168 170.535067 
L 150.620266 170.226269 
L 150.707848 170.135688 
L 150.812946 169.97923 
L 150.883011 169.884532 
L 150.988109 169.530444 
L 151.040658 169.460449 
L 151.145756 169.295757 
L 151.215821 169.192824 
L 151.320919 169.056953 
L 151.443533 168.974607 
L 151.531115 168.851087 
L 151.583664 168.776976 
L 151.583664 168.744037 
L 151.671246 168.715216 
L 151.688762 168.715216 
L 151.828893 168.599931 
L 151.93399 168.455826 
L 152.004056 168.373479 
L 152.109154 168.200552 
L 152.179219 168.138793 
L 152.284317 167.998804 
L 152.354382 167.904106 
L 152.45948 167.677654 
L 152.617127 167.59119 
L 152.722225 167.249453 
L 152.809807 167.175342 
L 152.809807 167.146521 
L 152.897388 167.064174 
L 152.949937 167.031236 
L 153.037519 166.796549 
L 153.160133 166.693617 
L 153.265231 166.405405 
L 153.352813 166.306589 
L 153.457911 166.236595 
L 153.51046 166.170718 
L 153.580525 166.084255 
L 153.755688 165.993674 
L 153.84327 165.709579 
L 154.000917 165.565473 
L 154.106015 165.409016 
L 154.158564 165.363725 
L 154.246145 165.20315 
L 154.281178 165.20315 
L 154.281178 165.100217 
L 154.351243 165.021988 
L 154.526406 164.914938 
L 154.631504 164.783184 
L 154.719086 164.688486 
L 154.806668 164.478503 
L 154.894249 164.383805 
L 154.981831 164.136767 
L 155.121961 164.037951 
L 155.121961 164.029717 
L 155.227059 163.984426 
L 155.437255 163.881493 
L 155.542353 163.770326 
L 155.629935 163.708566 
L 155.629935 163.67151 
L 155.735033 163.51917 
L 155.840131 163.445058 
L 155.945229 163.30507 
L 156.050326 163.222724 
L 156.137908 163.02921 
L 156.22549 162.98392 
L 156.22549 162.92216 
L 156.313071 162.823344 
L 156.435686 162.75335 
L 156.435686 162.716294 
L 156.540784 162.642183 
L 156.663398 162.535133 
L 156.768496 162.423965 
L 156.961175 162.288094 
L 157.066273 162.152223 
L 157.153855 162.082229 
L 157.258953 161.94224 
L 157.451632 161.814603 
L 157.55673 161.682849 
L 157.679345 161.584034 
L 157.784442 161.427576 
L 157.854508 161.361699 
L 157.959606 161.168186 
L 158.099736 161.077605 
L 158.099736 161.061136 
L 158.187318 160.859387 
L 158.2749 160.80998 
L 158.379997 160.612349 
L 158.520128 160.53412 
L 158.625226 160.381779 
L 158.695291 160.307668 
L 158.800389 160.114154 
L 158.835422 160.08945 
L 158.835422 160.019456 
L 158.94052 159.854763 
L 159.045618 159.772417 
L 159.150716 159.673602 
L 159.255814 159.587138 
L 159.360912 159.451267 
L 159.46601 159.344217 
L 159.571107 159.130117 
L 159.728754 159.072474 
L 159.833852 158.78838 
L 159.991499 158.685447 
L 160.096597 158.553693 
L 160.149146 158.471347 
L 160.254244 158.335476 
L 160.376858 158.249012 
L 160.376858 158.240778 
L 160.481956 158.137845 
L 160.569538 158.055499 
L 160.674636 157.894924 
L 160.79725 157.800225 
L 160.902348 157.627298 
L 161.007446 157.5326 
L 161.095028 157.359673 
L 161.112544 157.359673 
L 161.182609 157.293796 
L 161.287707 157.030288 
L 161.427838 156.923238 
L 161.532936 156.836775 
L 161.585485 156.78325 
L 161.585485 156.733842 
L 161.690583 156.643261 
L 161.795681 156.55268 
L 161.900779 156.285055 
L 161.953327 156.252117 
L 161.953327 156.18624 
L 162.18104 156.025665 
L 162.286138 155.935084 
L 162.443785 155.840386 
L 162.548882 155.543939 
L 162.618948 155.473945 
L 162.706529 155.346308 
L 162.829144 155.263962 
L 162.934242 155.177499 
L 163.144437 155.0828 
L 163.232019 154.881052 
L 163.51228 154.778119 
L 163.599862 154.601075 
L 163.722476 154.522846 
L 163.722476 154.494025 
L 163.827574 154.308746 
L 163.915156 154.209931 
L 164.020254 154.123467 
L 164.107835 154.037004 
L 164.107835 154.020534 
L 164.212933 153.925836 
L 164.335547 153.835255 
L 164.440645 153.588217 
L 164.528227 153.501753 
L 164.633325 153.378234 
L 164.808488 153.29177 
L 164.913586 153.176486 
L 165.053717 153.094139 
L 165.053717 153.073553 
L 165.158815 153.011793 
L 165.333978 152.880039 
L 165.42156 152.698878 
L 165.491625 152.595945 
L 165.596723 152.451839 
L 165.701821 152.344789 
L 165.806919 152.073046 
L 166.034631 151.970114 
L 166.139729 151.871298 
L 166.262343 151.780717 
L 166.367441 151.611908 
L 166.455023 151.517209 
L 166.560121 151.373104 
L 166.647702 151.28664 
L 166.7528 151.167238 
L 166.857898 151.064305 
L 166.94548 150.899613 
L 167.050578 150.817267 
L 167.138159 150.570228 
L 167.260773 150.512586 
L 167.365871 150.347893 
L 167.453453 150.253195 
L 167.558551 150.13791 
L 167.698682 150.067916 
L 167.80378 149.952631 
L 167.926394 149.845581 
L 168.259204 149.594425 
L 168.364302 149.524431 
L 168.4694 149.437967 
L 168.574498 149.277392 
L 168.749661 149.170342 
L 168.837243 149.038588 
L 168.99489 148.956242 
L 169.099987 148.787432 
L 169.257634 148.692734 
L 169.257634 148.680382 
L 169.3277 148.565098 
L 169.345216 148.565098 
L 171.394626 146.856414 
L 171.499724 146.732894 
L 171.622338 146.634079 
L 171.727436 146.498208 
L 171.815018 146.415861 
L 171.815018 146.411744 
L 172.252926 146.164705 
L 172.358024 146.061773 
L 172.550703 145.95884 
L 172.655801 145.802382 
L 172.830964 145.707684 
L 172.936062 145.641807 
L 173.198807 145.584165 
L 173.303905 145.353595 
L 173.479068 145.258897 
L 173.56665 145.098322 
L 173.689264 145.003624 
L 173.794362 144.929512 
L 173.987042 144.830697 
L 174.09214 144.649535 
L 174.23227 144.558954 
L 174.284819 144.451904 
L 174.442466 144.357206 
L 174.547564 144.27486 
L 174.705211 144.134871 
L 174.810309 144.040173 
L 174.827825 144.040173 
L 174.932923 143.863129 
L 175.073054 143.756079 
L 175.160635 143.661381 
L 175.335799 143.558448 
L 175.440897 143.500805 
L 175.545994 143.397873 
L 175.651092 143.29494 
L 175.843772 143.18789 
L 175.94887 143.109661 
L 176.089001 143.01908 
L 176.089001 143.006728 
L 176.194098 142.846153 
L 176.28168 142.763807 
L 176.386778 142.627936 
L 176.561941 142.570293 
L 176.667039 142.385014 
L 176.789653 142.298551 
L 176.789653 142.290316 
L 176.894751 142.170914 
L 177.034882 142.080333 
L 177.122464 142.026808 
L 177.175013 141.948579 
L 177.28011 141.845647 
L 177.385208 141.767418 
L 177.490306 141.627429 
L 177.682986 141.520379 
L 177.788084 141.405094 
L 177.963247 141.330983 
L 178.068345 141.215698 
L 178.243508 141.121 
L 178.243508 141.112765 
L 178.33109 140.993363 
L 178.488737 140.886313 
L 178.593835 140.816319 
L 178.804031 140.713386 
L 178.891612 140.598101 
L 178.99671 140.466348 
L 179.101808 140.359297 
L 179.294488 140.252247 
L 179.399586 140.157549 
L 179.679847 140.071086 
L 179.784945 139.947566 
L 180.012657 139.844634 
L 180.117755 139.75817 
L 180.275402 139.684058 
L 180.275402 139.659355 
L 180.3805 139.474076 
L 180.678277 139.37526 
L 180.783375 139.235272 
L 180.941022 139.140573 
L 181.028604 139.012937 
L 181.151218 138.918239 
L 181.256316 138.765898 
L 181.448995 138.6712 
L 181.554093 138.617675 
L 181.746773 138.527094 
L 181.851871 138.411809 
L 181.956969 138.370636 
L 182.062067 138.082425 
L 182.307295 137.975375 
L 182.412393 137.802448 
L 182.657622 137.740688 
L 182.727687 137.621286 
L 182.955399 137.468945 
L 183.060497 137.337191 
L 183.270693 137.254845 
L 183.375791 137.131326 
L 183.673569 137.024276 
L 183.778666 136.896639 
L 183.866248 136.793706 
L 183.883764 136.756651 
L 183.936313 136.756651 
L 184.09396 136.661952 
L 184.199058 136.554902 
L 185.530299 135.496754 
L 185.635397 135.381469 
L 185.775527 135.278536 
L 185.880625 135.187955 
L 186.038272 135.08914 
L 186.14337 134.973855 
L 186.318533 134.887392 
L 186.406115 134.776224 
L 186.616311 134.669174 
L 186.721409 134.520951 
L 186.914088 134.413901 
L 187.019186 134.36861 
L 187.246899 134.26156 
L 187.351996 134.220387 
L 187.474611 134.121572 
L 187.579709 134.018639 
L 187.684807 133.915706 
L 187.684807 133.911589 
L 187.947551 133.738662 
L 188.017617 133.66455 
L 188.157747 133.590439 
L 188.262845 133.438098 
L 188.350427 133.335165 
L 188.455525 133.23635 
L 188.560623 133.170473 
L 188.665721 133.018133 
L 188.753302 132.972842 
L 188.753302 132.923434 
L 188.8584 132.836971 
L 189.156178 132.74639 
L 189.261276 132.651692 
L 189.401406 132.573463 
L 189.488988 132.429357 
L 189.664151 132.322307 
L 189.769249 132.182318 
L 189.944412 132.091738 
L 190.04951 131.997039 
L 190.277223 131.894107 
L 190.38232 131.824112 
L 190.434869 131.745884 
L 190.539967 131.626481 
L 190.732647 131.544135 
L 190.820229 131.437085 
L 190.960359 131.33827 
L 191.047941 131.280627 
L 191.503365 131.173577 
L 191.608463 131.095348 
L 191.801143 130.996533 
L 191.906241 130.868896 
L 192.063887 130.765964 
L 192.168985 130.481869 
L 192.449247 130.374819 
L 192.554345 130.29659 
L 192.711991 130.206009 
L 192.799573 130.173071 
L 192.817089 130.173071 
L 193.097351 130.012496 
L 193.202449 129.921915 
L 193.395128 129.823099 
L 193.395128 129.814865 
L 193.48271 129.769574 
L 193.640357 129.683111 
L 193.710422 129.617234 
L 193.850552 129.518418 
L 193.95565 129.431955 
L 194.043232 129.337257 
L 194.14833 129.189034 
L 194.498656 128.95023 
L 194.586238 128.834945 
L 194.778918 128.769068 
L 194.778918 128.748481 
L 194.884016 128.587906 
L 195.199309 128.489091 
L 195.304407 128.35322 
L 195.374473 128.270873 
L 195.479571 128.176175 
L 195.829897 127.995013 
L 195.899962 127.859142 
L 195.917479 127.859142 
L 196.145191 127.710919 
L 196.250289 127.673863 
L 196.460485 127.620338 
L 196.460485 127.595634 
L 196.565583 127.517405 
L 196.775779 127.414473 
L 196.880876 127.299188 
L 197.038523 127.20449 
L 197.143621 127.155082 
L 197.213687 127.048032 
L 197.266236 126.986272 
L 197.91434 126.656888 
L 198.001921 126.529251 
L 198.24715 126.426318 
L 198.334731 126.37691 
L 198.474862 126.28633 
L 198.57996 126.166928 
L 198.842705 126.072229 
L 198.947803 125.911654 
L 199.228064 125.808722 
L 199.333162 125.676968 
L 199.736037 125.343465 
L 199.858651 125.285823 
L 199.858651 125.269354 
L 199.963749 125.178773 
L 200.261527 125.079958 
L 200.366625 124.993494 
L 200.559304 124.890561 
L 200.664402 124.845271 
L 200.927147 124.746455 
L 201.032245 124.684696 
L 201.189892 124.577646 
L 201.29499 124.557059 
L 201.540218 124.466478 
L 201.610284 124.367663 
L 201.978127 124.277082 
L 202.065708 124.20297 
L 202.188322 124.100038 
L 202.29342 124.038278 
L 202.451067 123.960049 
L 202.556165 123.83653 
L 202.731328 123.733597 
L 202.836426 123.659485 
L 203.15172 123.552435 
L 203.256818 123.457737 
L 203.48453 123.379508 
L 203.589628 123.293045 
L 203.904922 123.194229 
L 203.904922 123.190112 
L 204.01002 123.099531 
L 204.185183 122.996598 
L 204.272765 122.930721 
L 204.465445 122.827789 
L 204.570542 122.728973 
L 204.798255 122.506638 
L 204.903353 122.444879 
L 205.306228 122.337829 
L 205.39381 122.288421 
L 205.411326 122.288421 
L 205.639038 122.131963 
L 205.744136 122.082555 
L 205.814201 122.02903 
L 205.884267 121.938449 
L 206.111979 121.831399 
L 206.217077 121.654355 
L 206.532371 121.551422 
L 206.637469 121.49378 
L 206.970279 121.394964 
L 207.05786 121.316736 
L 207.25054 121.222037 
L 207.355638 121.139691 
L 207.548317 121.036758 
L 207.653415 120.991468 
L 207.828579 120.892653 
L 207.933677 120.83501 
L 208.126356 120.732077 
L 208.213938 120.662083 
L 208.616813 120.530329 
L 208.721911 120.431514 
L 208.809493 120.340933 
L 208.914591 120.258587 
L 209.037205 120.151537 
L 209.142303 120.098012 
L 209.282433 119.990962 
L 209.387531 119.958023 
L 209.562695 119.875677 
L 209.667793 119.768627 
L 209.772891 119.723336 
L 209.877988 119.5957 
L 210.175766 119.439242 
L 210.263348 119.332192 
L 210.49106 119.229259 
L 210.596158 119.175734 
L 210.753805 119.076919 
L 210.858903 118.986338 
L 211.016549 118.887522 
L 211.086615 118.809293 
L 211.384392 118.72283 
L 211.384392 118.702243 
L 211.48949 118.644601 
L 211.68217 118.562255 
L 211.787268 118.442853 
L 212.01498 118.344037 
L 212.120078 118.269926 
L 212.312757 118.179345 
L 212.417855 117.95701 
L 212.733149 117.84996 
L 212.803214 117.734675 
L 213.065959 117.656446 
L 213.153541 117.520575 
L 213.398769 117.413525 
L 213.503867 117.351765 
L 213.679031 117.244715 
L 213.73158 117.20766 
L 213.766612 117.20766 
L 213.994324 117.108844 
L 214.081906 116.985325 
L 214.309618 116.886509 
L 214.414716 116.820632 
L 214.502298 116.725934 
L 214.502298 116.713582 
L 214.589879 116.651823 
L 214.835108 116.553007 
L 214.92269 116.474778 
L 215.115369 116.371845 
L 215.167918 116.338907 
L 215.483212 116.235974 
L 215.570794 116.215388 
L 215.991185 116.108338 
L 216.096283 116.021874 
L 216.183865 115.972466 
L 216.288963 115.832478 
L 216.551708 115.729545 
L 216.656806 115.655433 
L 216.814453 115.556618 
L 216.91955 115.50721 
L 217.234844 115.40016 
L 217.322426 115.363104 
L 217.620203 115.264289 
L 217.725301 115.111948 
L 218.338373 114.86491 
L 218.425954 114.799033 
L 218.653666 114.6961 
L 218.758764 114.646692 
L 219.091575 114.556111 
L 219.196673 114.469648 
L 219.49445 114.362598 
L 219.599548 114.304955 
L 219.82726 114.20614 
L 219.932358 114.045565 
L 220.16007 113.942632 
L 220.247652 113.872638 
L 220.49288 113.773822 
L 220.597978 113.724415 
L 220.860723 113.617365 
L 220.965821 113.530901 
L 221.228566 113.366209 
L 221.333664 113.325036 
L 221.894186 113.217985 
L 221.999284 113.176812 
L 222.262029 113.016237 
L 222.367127 112.938008 
L 222.612356 112.830958 
L 222.699937 112.740377 
L 223.015231 112.637445 
L 223.120329 112.571568 
L 223.523204 112.472752 
L 223.628302 112.390406 
L 223.943596 112.283356 
L 224.048694 112.213362 
L 224.293923 112.110429 
L 224.399021 112.061021 
L 224.5917 111.953971 
L 224.679282 111.92515 
L 225.11719 111.822217 
L 225.222288 111.75634 
L 225.467516 111.661642 
L 225.555098 111.612234 
L 225.78281 111.505184 
L 225.887908 111.439307 
L 226.11562 111.352844 
L 226.220718 111.286967 
L 226.430914 111.179917 
L 226.536012 111.146978 
L 226.798757 111.05228 
L 226.903855 110.986403 
L 227.149083 110.895822 
L 227.254181 110.751716 
L 227.604508 110.661136 
L 227.709606 110.56232 
L 227.919802 110.467622 
L 228.0249 110.397628 
L 228.112481 110.302929 
L 228.217579 110.228818 
L 228.567906 110.121768 
L 228.673004 110.051774 
L 228.953265 109.961193 
L 229.058363 109.891198 
L 229.251042 109.817087 
L 229.35614 109.640042 
L 229.566336 109.549462 
L 229.671434 109.47535 
L 229.916662 109.372417 
L 230.004244 109.339479 
L 230.337054 109.253015 
L 230.442152 109.158317 
L 230.73993 109.051267 
L 230.845028 108.98539 
L 230.985158 108.886575 
L 231.090256 108.828932 
L 231.282936 108.734234 
L 231.370517 108.676592 
L 231.703327 108.573659 
L 231.808425 108.507782 
L 232.07117 108.413084 
L 232.158752 108.338972 
L 232.719274 108.23604 
L 232.806856 108.190749 
L 233.157182 108.083699 
L 233.26228 108.034291 
L 233.612607 107.939593 
L 233.717705 107.85313 
L 233.910384 107.750197 
L 234.015482 107.709024 
L 234.488423 107.606091 
L 234.593521 107.499041 
L 234.838749 107.396108 
L 234.943847 107.309645 
L 235.17156 107.206712 
L 235.276657 107.153187 
L 235.486853 107.046137 
L 235.591951 107.009081 
L 235.732082 106.9185 
L 235.732082 106.889679 
L 236.327637 106.745573 
L 236.432735 106.663227 
L 236.677963 106.560294 
L 236.783061 106.519121 
L 237.010773 106.420306 
L 237.010773 106.412071 
L 237.115871 106.375015 
L 237.431165 106.272082 
L 237.466198 106.247378 
L 237.939139 106.15268 
L 238.044237 106.053865 
L 238.2194 105.987988 
L 238.324498 105.880938 
L 238.639792 105.773888 
L 238.727373 105.720363 
L 239.270379 105.613313 
L 239.620706 105.419799 
L 240.058614 105.185112 
L 240.146195 105.115118 
L 240.426457 105.024537 
L 240.531554 104.983364 
L 240.846848 104.880431 
L 240.916914 104.839258 
L 241.284756 104.740443 
L 241.389854 104.666331 
L 241.617567 104.567516 
L 241.705148 104.53046 
L 242.160573 104.42341 
L 242.265671 104.365768 
L 242.510899 104.258717 
L 242.580964 104.221662 
L 243.036389 104.114612 
L 243.12397 104.065204 
L 243.491813 103.966388 
L 243.579395 103.896394 
L 243.84214 103.809931 
L 243.84214 103.797579 
L 243.912205 103.744054 
L 244.280048 103.637004 
L 244.385146 103.6123 
L 244.647891 103.517602 
L 244.700439 103.497015 
L 244.752988 103.497015 
L 245.015733 103.389965 
L 245.103315 103.332323 
L 245.50619 103.225272 
L 245.611288 103.171747 
L 245.944098 103.068815 
L 246.049196 102.99882 
L 246.311941 102.89177 
L 246.417039 102.84648 
L 246.767366 102.747664 
L 246.767366 102.743547 
L 246.872464 102.685905 
L 247.170241 102.591207 
L 247.240306 102.529447 
L 247.5556 102.438866 
L 247.660698 102.352403 
L 248.011025 102.245353 
L 248.116123 102.195945 
L 248.60658 102.101247 
L 248.711678 102.068308 
L 248.93939 101.985962 
L 249.026971 101.932437 
L 249.307233 101.825387 
L 249.377298 101.788331 
L 249.622526 101.689516 
L 249.622526 101.681281 
L 250.883702 101.273667 
L 250.9888 101.216025 
L 251.46174 101.108975 
L 251.566838 101.063684 
L 251.969714 100.985455 
L 252.057295 100.903109 
L 252.670367 100.796059 
L 252.757948 100.705478 
L 253.195856 100.598428 
L 253.300954 100.540786 
L 253.896509 100.433736 
L 253.984091 100.380211 
L 254.544613 100.281395 
L 255.245266 100.067295 
L 255.630625 99.964362 
L 255.700691 99.914955 
L 256.068533 99.820257 
L 256.156115 99.750262 
L 257.224611 99.474402 
L 257.329709 99.441464 
L 257.767617 99.334414 
L 257.855198 99.305593 
L 258.13546 99.231481 
L 258.13546 99.227364 
L 259.168923 98.98856 
L 259.274021 98.930917 
L 259.606831 98.823867 
L 259.711929 98.778577 
L 260.044739 98.671527 
L 260.13232 98.646823 
L 260.465131 98.548008 
L 260.552712 98.482131 
L 260.797941 98.379198 
L 260.903039 98.333907 
L 261.148267 98.239209 
L 261.148267 98.226857 
L 261.235849 98.148628 
L 261.673757 98.045696 
L 261.778855 98.004523 
L 262.164214 97.905707 
L 262.164214 97.881003 
L 262.497024 97.773953 
L 262.602122 97.708076 
L 263.057546 97.609261 
L 263.145128 97.493976 
L 263.460422 97.386926 
L 263.56552 97.34987 
L 263.880814 97.24282 
L 264.458852 97.082245 
L 264.528918 97.049306 
L 265.141989 96.946374 
L 265.194538 96.901083 
L 265.562381 96.802268 
L 265.632446 96.748743 
L 266.175452 96.682866 
L 266.175452 96.641693 
L 266.28055 96.604637 
L 266.823556 96.497587 
L 266.876105 96.481118 
L 267.261464 96.386419 
L 267.261464 96.374067 
L 267.366562 96.320542 
L 267.80447 96.213492 
L 267.857019 96.168202 
L 268.767868 96.061152 
L 268.872966 96.040565 
L 269.275841 95.933515 
L 269.380939 95.908811 
L 269.608651 95.809996 
L 269.713749 95.764705 
L 270.817278 95.657655 
L 270.904859 95.6206 
L 271.623029 95.51355 
L 271.728127 95.460025 
L 272.323682 95.352974 
L 272.42878 95.311801 
L 272.866688 95.204751 
L 272.971786 95.171813 
L 273.374661 95.06888 
L 273.444726 95.003003 
L 273.847602 94.904188 
L 273.9527 94.842428 
L 274.495706 94.739495 
L 274.565771 94.710674 
L 275.038712 94.603624 
L 275.108777 94.570685 
L 275.511652 94.47187 
L 275.61675 94.447166 
L 276.229822 94.340116 
L 276.33492 94.290708 
L 276.80786 94.187776 
L 276.912958 94.13425 
L 277.298317 94.031318 
L 277.385899 94.002497 
L 284.795304 92.174411 
L 284.900402 92.104416 
L 285.408375 91.997366 
L 285.460924 91.956193 
L 285.47844 91.956193 
L 286.073995 91.857378 
L 286.179093 91.816205 
L 286.564453 91.717389 
L 286.652034 91.663864 
L 287.160008 91.569166 
L 287.247589 91.548579 
L 287.913209 91.441529 
L 287.983275 91.412708 
L 288.456215 91.31801 
L 288.456215 91.305658 
L 291.696735 90.441023 
L 291.784317 90.39985 
L 291.95948 90.321621 
L 292.064578 90.255744 
L 292.607584 90.148694 
L 292.677649 90.128107 
L 293.080525 90.021057 
L 293.185623 89.967532 
L 293.641047 89.860482 
L 293.67608 89.839895 
L 294.096472 89.749315 
L 294.20157 89.654616 
L 294.709543 89.559918 
L 294.814641 89.518745 
L 295.2 89.415812 
L 295.305098 89.399343 
L 295.813071 89.292293 
L 295.918169 89.247003 
L 296.268496 89.14407 
L 296.356077 89.094662 
L 296.899083 88.987612 
L 296.969149 88.954674 
L 297.512155 88.847624 
L 297.599736 88.794099 
L 298.10771 88.703518 
L 298.212808 88.65411 
L 298.808363 88.54706 
L 298.913461 88.472948 
L 299.263787 88.370016 
L 299.316336 88.33296 
L 300.122087 88.234144 
L 300.227185 88.151798 
L 300.787707 88.048865 
L 300.892805 88.020044 
L 301.120517 87.917111 
L 301.225615 87.871821 
L 301.856203 87.764771 
L 301.908752 87.752419 
L 302.241562 87.645369 
L 302.34666 87.579492 
L 302.732019 87.472442 
L 302.837117 87.435386 
L 303.292541 87.344805 
L 303.380123 87.311867 
L 303.940645 87.204817 
L 304.028227 87.171878 
L 304.676331 87.064828 
L 304.72888 87.056593 
L 305.289402 86.953661 
L 305.289402 86.949543 
L 308.284694 86.150785 
L 308.389792 86.105495 
L 308.8277 86.002562 
L 308.897765 85.965506 
L 308.915281 85.965506 
L 309.49332 85.862573 
L 309.598418 85.8214 
L 310.334103 85.718467 
L 310.439201 85.689646 
L 310.824561 85.594948 
L 310.912142 85.553775 
L 311.385083 85.45496 
L 311.385083 85.43849 
L 311.858024 85.343792 
L 311.945605 85.306736 
L 312.313448 85.199686 
L 312.418546 85.162631 
L 312.681291 85.05558 
L 312.786389 85.014407 
L 313.434493 84.907357 
L 313.539591 84.890888 
L 314.030048 84.783838 
L 314.117629 84.73443 
L 314.678152 84.631497 
L 314.765733 84.577972 
L 315.378805 84.470922 
L 315.466386 84.446218 
L 315.956843 84.35152 
L 316.061941 84.322699 
L 316.622464 84.215649 
L 316.727562 84.162124 
L 317.358149 84.067426 
L 317.463247 84.005666 
L 318.093835 83.898616 
L 318.1639 83.869795 
L 318.847037 83.766862 
L 318.934618 83.742158 
L 319.617755 83.635108 
L 319.722853 83.606287 
L 320.405989 83.499237 
L 320.476055 83.474533 
L 321.21174 83.3716 
L 321.299322 83.330427 
L 321.912393 83.223377 
L 322.017491 83.165735 
L 322.525465 83.066919 
L 322.630563 83.046333 
L 322.998405 82.939283 
L 323.103503 82.922813 
L 323.541411 82.815763 
L 323.646509 82.795177 
L 324.399711 82.688127 
L 324.469776 82.679892 
L 324.504809 82.679892 
L 324.925201 82.585194 
L 325.695919 82.478144 
L 325.801017 82.457557 
L 326.379056 82.350507 
L 326.414088 82.334038 
L 326.466637 82.334038 
L 327.289905 82.231105 
L 327.395003 82.185815 
L 328.008074 82.082882 
L 328.113172 82.033474 
L 328.673694 81.926424 
L 328.778792 81.885251 
L 329.794739 81.778201 
L 329.88232 81.753497 
L 330.688071 81.646447 
L 330.775653 81.625861 
L 331.59892 81.518811 
L 331.616436 81.506459 
L 332.404671 81.403526 
L 332.509769 81.374705 
L 333.175389 81.271772 
L 333.210422 81.25942 
L 334.208852 81.160605 
L 334.31395 81.127666 
L 335.294864 81.024733 
L 335.399962 80.98356 
L 335.890419 80.87651 
L 335.978001 80.851806 
L 336.415909 80.744756 
L 336.415909 80.740639 
L 337.326758 80.633589 
L 337.431856 80.60065 
L 338.272639 80.501835 
L 338.272639 80.497718 
L 338.640482 80.440075 
L 339.253553 80.333025 
L 339.323619 80.316556 
L 339.341135 80.316556 
L 339.779043 80.21774 
L 339.866625 80.193037 
L 340.497212 80.085986 
L 340.60231 80.073635 
L 341.1278 79.970702 
L 341.1278 79.962467 
L 341.162833 79.962467 
L 342.108714 79.806009 
L 342.161263 79.793657 
L 343.002047 79.690725 
L 343.072112 79.661903 
L 343.947928 79.554853 
L 344.03551 79.526032 
L 344.736163 79.418982 
L 344.841261 79.394278 
L 345.682044 79.287228 
L 345.752109 79.274876 
L 346.505311 79.167826 
L 346.610409 79.14724 
L 347.363611 79.04019 
L 347.468709 79.015486 
L 347.889101 78.908436 
L 347.994199 78.883732 
L 348.975113 78.776682 
L 349.062695 78.756095 
L 349.605701 78.653162 
L 349.693282 78.624341 
L 350.358903 78.521408 
L 350.393935 78.504939 
L 350.884392 78.397889 
L 350.98949 78.385537 
L 351.777725 78.278487 
L 351.882823 78.262018 
L 352.618508 78.16732 
L 352.671057 78.146733 
L 352.70609 78.146733 
L 353.984782 77.957337 
L 353.984782 77.949102 
L 354.685434 77.842052 
L 354.7555 77.825583 
L 355.631316 77.718533 
L 355.666349 77.697946 
L 357.13772 77.475611 
L 357.207785 77.413852 
L 357.855889 77.323271 
L 357.873405 77.298567 
L 358.696673 77.191517 
L 358.731705 77.162696 
L 359.572489 77.055646 
L 359.66007 77.039177 
L 360.658501 76.936244 
L 360.763599 76.919775 
L 361.341637 76.820959 
L 361.341637 76.812724 
L 362.410133 76.664501 
L 363.618759 76.557451 
L 363.723857 76.536865 
L 364.477059 76.433932 
L 364.547125 76.417463 
L 366.053528 76.310413 
L 366.14111 76.265122 
L 367.034442 76.158072 
L 367.104508 76.149837 
L 368.120455 76.046905 
L 368.120455 76.03867 
L 368.803591 75.93162 
L 368.873656 75.919268 
L 369.539277 75.812218 
L 369.644375 75.791631 
L 370.292479 75.684581 
L 370.292479 75.672229 
L 371.343458 75.565179 
L 371.378491 75.552827 
L 372.569601 75.445777 
L 372.674699 75.421073 
L 373.708162 75.318141 
L 373.708162 75.314023 
L 373.795743 75.276968 
L 375.214566 75.169917 
L 375.319663 75.149331 
L 376.107898 75.042281 
L 376.107898 75.038164 
L 376.8611 74.931113 
L 376.913649 74.918762 
L 377.649335 74.815829 
L 377.649335 74.807594 
L 377.684367 74.807594 
L 379.471032 74.700544 
L 379.57613 74.679958 
L 380.294299 74.577025 
L 380.399397 74.531734 
L 381.10005 74.428802 
L 381.205148 74.408215 
L 382.238611 74.305282 
L 382.326193 74.264109 
L 383.622401 74.157059 
L 383.709982 74.115886 
L 384.901092 74.008836 
L 384.971158 74.000601 
L 385.934555 73.893551 
L 385.987104 73.877082 
L 387.143182 73.778266 
L 387.24828 73.720624 
L 388.299259 73.617691 
L 388.386841 73.584753 
L 389.805663 73.477703 
L 389.875728 73.465351 
L 390.909191 73.358301 
L 390.96174 73.350066 
L 391.995203 73.243016 
L 392.065269 73.22243 
L 393.046183 73.115379 
L 393.133764 73.094793 
L 394.359907 72.987743 
L 394.447489 72.971274 
L 394.465005 72.971274 
L 395.480952 72.868341 
L 395.480952 72.860106 
L 397.004872 72.753056 
L 397.004872 72.748939 
L 397.740558 72.641889 
L 397.828139 72.625419 
L 399.474674 72.518369 
L 399.562255 72.489548 
L 401.121208 72.382498 
L 401.20879 72.34956 
L 402.312318 72.246627 
L 402.312318 72.238392 
L 403.608526 72.131342 
L 404.449309 72.036644 
L 405.622903 71.929594 
L 405.728001 71.913125 
L 406.77898 71.806075 
L 406.831529 71.789605 
L 407.900025 71.682555 
L 407.987607 71.649617 
L 409.108651 71.542567 
L 409.213749 71.513746 
L 410.597539 71.410813 
L 410.667604 71.394344 
L 411.963812 71.295528 
L 411.981328 71.279059 
L 413.838059 71.172009 
L 413.908124 71.151422 
L 413.92564 71.151422 
L 416.377926 70.966143 
L 418.182107 70.859093 
L 418.252172 70.842624 
L 420.056354 70.739691 
L 420.371647 70.706753 
L 421.492692 70.599703 
L 421.59779 70.591468 
L 422.823933 70.484418 
L 422.823933 70.480301 
L 424.120141 70.373251 
L 424.207722 70.352664 
L 424.225239 70.352664 
L 424.855826 70.278552 
L 426.309681 70.171502 
L 426.36223 70.150916 
L 428.113862 70.043866 
L 428.201444 70.015045 
L 430.110723 69.907994 
L 430.110723 69.89976 
L 430.215821 69.89976 
L 432.598041 69.796827 
L 432.65059 69.784475 
L 434.629935 69.677425 
L 434.735033 69.652721 
L 435.89111 69.545671 
L 435.926143 69.537436 
L 438.290846 69.434504 
L 438.360912 69.418034 
L 440.059995 69.310984 
L 440.165093 69.30275 
L 442.03934 69.1957 
L 442.144437 69.183348 
L 443.685874 69.076298 
L 443.773456 69.063946 
L 445.262343 68.956896 
L 445.349925 68.923957 
L 447.119073 68.816907 
L 447.189139 68.804555 
L 448.835673 68.697505 
L 448.940771 68.681036 
L 450.70992 68.573986 
L 450.779985 68.565751 
L 452.934493 68.458701 
L 453.022074 68.442232 
L 455.106517 68.335182 
L 455.124033 68.32283 
L 457.681416 68.21578 
L 457.681416 68.207545 
L 460.063636 68.100495 
L 460.151218 68.084026 
L 461.920367 67.976976 
L 462.025465 67.960506 
L 464.390168 67.857574 
L 464.390168 67.849339 
L 466.33448 67.742289 
L 466.387029 67.729937 
L 469.102059 67.622887 
L 469.172125 67.606418 
L 471.396698 67.499368 
L 471.396698 67.491133 
L 475.442968 67.392318 
L 475.478001 67.363496 
L 480.575251 67.256446 
L 480.575251 67.252329 
L 484.39381 67.149396 
L 484.39381 67.141162 
L 492.100992 67.034112 
L 492.100992 67.029994 
L 498.109091 66.96 
L 498.109091 66.96 
" clip-path="url(#p22ffcbc6ad)" style="fill: none; stroke: #ff8c00; stroke-width: 2; stroke-linecap: square"/>
   </g>
   <g id="line2d_14">
    <path d="M 92.290909 369.36 
L 498.109091 66.96 
" clip-path="url(#p22ffcbc6ad)" style="fill: none; stroke-dasharray: 7.4,3.2; stroke-dashoffset: 0; stroke: #000080; stroke-width: 2"/>
   </g>
   <g id="patch_3">
    <path d="M 72 384.48 
L 72 51.84 
" style="fill: none; stroke: #000000; stroke-width: 0.8; stroke-linejoin: miter; stroke-linecap: square"/>
   </g>
   <g id="patch_4">
    <path d="M 518.4 384.48 
L 518.4 51.84 
" style="fill: none; stroke: #000000; stroke-width: 0.8; stroke-linejoin: miter; stroke-linecap: square"/>
   </g>
   <g id="patch_5">
    <path d="M 72 384.48 
L 518.4 384.48 
" style="fill: none; stroke: #000000; stroke-width: 0.8; stroke-linejoin: miter; stroke-linecap: square"/>
   </g>
   <g id="patch_6">
    <path d="M 72 51.84 
L 518.4 51.84 
" style="fill: none; stroke: #000000; stroke-width: 0.8; stroke-linejoin: miter; stroke-linecap: square"/>
   </g>
   <g id="text_13">
    <!-- Binary ROC: High Life Satisfaction (&gt;5) -->
    <g transform="translate(177.938437 45.84) scale(0.12 -0.12)">
     <defs>
      <path id="DejaVuSans-42" d="M 1259 2228 
L 1259 519 
L 2272 519 
Q 2781 519 3026 730 
Q 3272 941 3272 1375 
Q 3272 1813 3026 2020 
Q 2781 2228 2272 2228 
L 1259 2228 
z
M 1259 4147 
L 1259 2741 
L 2194 2741 
Q 2656 2741 2882 2914 
Q 3109 3088 3109 3444 
Q 3109 3797 2882 3972 
Q 2656 4147 2194 4147 
L 1259 4147 
z
M 628 4666 
L 2241 4666 
Q 2963 4666 3353 4366 
Q 3744 4066 3744 3513 
Q 3744 3084 3544 2831 
Q 3344 2578 2956 2516 
Q 3422 2416 3680 2098 
Q 3938 1781 3938 1306 
Q 3938 681 3513 340 
Q 3088 0 2303 0 
L 628 0 
L 628 4666 
z
" transform="scale(0.015625)"/>
      <path id="DejaVuSans-69" d="M 603 3500 
L 1178 3500 
L 1178 0 
L 603 0 
L 603 3500 
z
M 603 4863 
L 1178 4863 
L 1178 4134 
L 603 4134 
L 603 4863 
z
" transform="scale(0.015625)"/>
      <path id="DejaVuSans-6e" d="M 3513 2113 
L 3513 0 
L 2938 0 
L 2938 2094 
Q 2938 2591 2744 2837 
Q 2550 3084 2163 3084 
Q 1697 3084 1428 2787 
Q 1159 2491 1159 1978 
L 1159 0 
L 581 0 
L 581 3500 
L 1159 3500 
L 1159 2956 
Q 1366 3272 1645 3428 
Q 1925 3584 2291 3584 
Q 2894 3584 3203 3211 
Q 3513 2838 3513 2113 
z
" transform="scale(0.015625)"/>
      <path id="DejaVuSans-61" d="M 2194 1759 
Q 1497 1759 1228 1600 
Q 959 1441 959 1056 
Q 959 750 1161 570 
Q 1363 391 1709 391 
Q 2188 391 2477 730 
Q 2766 1069 2766 1631 
L 2766 1759 
L 2194 1759 
z
M 3341 1997 
L 3341 0 
L 2766 0 
L 2766 531 
Q 2569 213 2275 61 
Q 1981 -91 1556 -91 
Q 1019 -91 701 211 
Q 384 513 384 1019 
Q 384 1609 779 1909 
Q 1175 2209 1959 2209 
L 2766 2209 
L 2766 2266 
Q 2766 2663 2505 2880 
Q 2244 3097 1772 3097 
Q 1472 3097 1187 3025 
Q 903 2953 641 2809 
L 641 3341 
Q 956 3463 1253 3523 
Q 1550 3584 1831 3584 
Q 2591 3584 2966 3190 
Q 3341 2797 3341 1997 
z
" transform="scale(0.015625)"/>
      <path id="DejaVuSans-72" d="M 2631 2963 
Q 2534 3019 2420 3045 
Q 2306 3072 2169 3072 
Q 1681 3072 1420 2755 
Q 1159 2438 1159 1844 
L 1159 0 
L 581 0 
L 581 3500 
L 1159 3500 
L 1159 2956 
Q 1341 3275 1631 3429 
Q 1922 3584 2338 3584 
Q 2397 3584 2469 3576 
Q 2541 3569 2628 3553 
L 2631 2963 
z
" transform="scale(0.015625)"/>
      <path id="DejaVuSans-79" d="M 2059 -325 
Q 1816 -950 1584 -1140 
Q 1353 -1331 966 -1331 
L 506 -1331 
L 506 -850 
L 844 -850 
Q 1081 -850 1212 -737 
Q 1344 -625 1503 -206 
L 1606 56 
L 191 3500 
L 800 3500 
L 1894 763 
L 2988 3500 
L 3597 3500 
L 2059 -325 
z
" transform="scale(0.015625)"/>
      <path id="DejaVuSans-20" transform="scale(0.015625)"/>
      <path id="DejaVuSans-52" d="M 2841 2188 
Q 3044 2119 3236 1894 
Q 3428 1669 3622 1275 
L 4263 0 
L 3584 0 
L 2988 1197 
Q 2756 1666 2539 1819 
Q 2322 1972 1947 1972 
L 1259 1972 
L 1259 0 
L 628 0 
L 628 4666 
L 2053 4666 
Q 2853 4666 3247 4331 
Q 3641 3997 3641 3322 
Q 3641 2881 3436 2590 
Q 3231 2300 2841 2188 
z
M 1259 4147 
L 1259 2491 
L 2053 2491 
Q 2509 2491 2742 2702 
Q 2975 2913 2975 3322 
Q 2975 3731 2742 3939 
Q 2509 4147 2053 4147 
L 1259 4147 
z
" transform="scale(0.015625)"/>
      <path id="DejaVuSans-4f" d="M 2522 4238 
Q 1834 4238 1429 3725 
Q 1025 3213 1025 2328 
Q 1025 1447 1429 934 
Q 1834 422 2522 422 
Q 3209 422 3611 934 
Q 4013 1447 4013 2328 
Q 4013 3213 3611 3725 
Q 3209 4238 2522 4238 
z
M 2522 4750 
Q 3503 4750 4090 4092 
Q 4678 3434 4678 2328 
Q 4678 1225 4090 567 
Q 3503 -91 2522 -91 
Q 1538 -91 948 565 
Q 359 1222 359 2328 
Q 359 3434 948 4092 
Q 1538 4750 2522 4750 
z
" transform="scale(0.015625)"/>
      <path id="DejaVuSans-43" d="M 4122 4306 
L 4122 3641 
Q 3803 3938 3442 4084 
Q 3081 4231 2675 4231 
Q 1875 4231 1450 3742 
Q 1025 3253 1025 2328 
Q 1025 1406 1450 917 
Q 1875 428 2675 428 
Q 3081 428 3442 575 
Q 3803 722 4122 1019 
L 4122 359 
Q 3791 134 3420 21 
Q 3050 -91 2638 -91 
Q 1578 -91 968 557 
Q 359 1206 359 2328 
Q 359 3453 968 4101 
Q 1578 4750 2638 4750 
Q 3056 4750 3426 4639 
Q 3797 4528 4122 4306 
z
" transform="scale(0.015625)"/>
      <path id="DejaVuSans-3a" d="M 750 794 
L 1409 794 
L 1409 0 
L 750 0 
L 750 794 
z
M 750 3309 
L 1409 3309 
L 1409 2516 
L 750 2516 
L 750 3309 
z
" transform="scale(0.015625)"/>
      <path id="DejaVuSans-48" d="M 628 4666 
L 1259 4666 
L 1259 2753 
L 3553 2753 
L 3553 4666 
L 4184 4666 
L 4184 0 
L 3553 0 
L 3553 2222 
L 1259 2222 
L 1259 0 
L 628 0 
L 628 4666 
z
" transform="scale(0.015625)"/>
      <path id="DejaVuSans-67" d="M 2906 1791 
Q 2906 2416 2648 2759 
Q 2391 3103 1925 3103 
Q 1463 3103 1205 2759 
Q 947 2416 947 1791 
Q 947 1169 1205 825 
Q 1463 481 1925 481 
Q 2391 481 2648 825 
Q 2906 1169 2906 1791 
z
M 3481 434 
Q 3481 -459 3084 -895 
Q 2688 -1331 1869 -1331 
Q 1566 -1331 1297 -1286 
Q 1028 -1241 775 -1147 
L 775 -588 
Q 1028 -725 1275 -790 
Q 1522 -856 1778 -856 
Q 2344 -856 2625 -561 
Q 2906 -266 2906 331 
L 2906 616 
Q 2728 306 2450 153 
Q 2172 0 1784 0 
Q 1141 0 747 490 
Q 353 981 353 1791 
Q 353 2603 747 3093 
Q 1141 3584 1784 3584 
Q 2172 3584 2450 3431 
Q 2728 3278 2906 2969 
L 2906 3500 
L 3481 3500 
L 3481 434 
z
" transform="scale(0.015625)"/>
      <path id="DejaVuSans-68" d="M 3513 2113 
L 3513 0 
L 2938 0 
L 2938 2094 
Q 2938 2591 2744 2837 
Q 2550 3084 2163 3084 
Q 1697 3084 1428 2787 
Q 1159 2491 1159 1978 
L 1159 0 
L 581 0 
L 581 4863 
L 1159 4863 
L 1159 2956 
Q 1366 3272 1645 3428 
Q 1925 3584 2291 3584 
Q 2894 3584 3203 3211 
Q 3513 2838 3513 2113 
z
" transform="scale(0.015625)"/>
      <path id="DejaVuSans-4c" d="M 628 4666 
L 1259 4666 
L 1259 531 
L 3531 531 
L 3531 0 
L 628 0 
L 628 4666 
z
" transform="scale(0.015625)"/>
      <path id="DejaVuSans-66" d="M 2375 4863 
L 2375 4384 
L 1825 4384 
Q 1516 4384 1395 4259 
Q 1275 4134 1275 3809 
L 1275 3500 
L 2222 3500 
L 2222 3053 
L 1275 3053 
L 1275 0 
L 697 0 
L 697 3053 
L 147 3053 
L 147 3500 
L 697 3500 
L 697 3744 
Q 697 4328 969 4595 
Q 1241 4863 1831 4863 
L 2375 4863 
z
" transform="scale(0.015625)"/>
      <path id="DejaVuSans-65" d="M 3597 1894 
L 3597 1613 
L 953 1613 
Q 991 1019 1311 708 
Q 1631 397 2203 397 
Q 2534 397 2845 478 
Q 3156 559 3463 722 
L 3463 178 
Q 3153 47 2828 -22 
Q 2503 -91 2169 -91 
Q 1331 -91 842 396 
Q 353 884 353 1716 
Q 353 2575 817 3079 
Q 1281 3584 2069 3584 
Q 2775 3584 3186 3129 
Q 3597 2675 3597 1894 
z
M 3022 2063 
Q 3016 2534 2758 2815 
Q 2500 3097 2075 3097 
Q 1594 3097 1305 2825 
Q 1016 2553 972 2059 
L 3022 2063 
z
" transform="scale(0.015625)"/>
      <path id="DejaVuSans-53" d="M 3425 4513 
L 3425 3897 
Q 3066 4069 2747 4153 
Q 2428 4238 2131 4238 
Q 1616 4238 1336 4038 
Q 1056 3838 1056 3469 
Q 1056 3159 1242 3001 
Q 1428 2844 1947 2747 
L 2328 2669 
Q 3034 2534 3370 2195 
Q 3706 1856 3706 1288 
Q 3706 609 3251 259 
Q 2797 -91 1919 -91 
Q 1588 -91 1214 -16 
Q 841 59 441 206 
L 441 856 
Q 825 641 1194 531 
Q 1563 422 1919 422 
Q 2459 422 2753 634 
Q 3047 847 3047 1241 
Q 3047 1584 2836 1778 
Q 2625 1972 2144 2069 
L 1759 2144 
Q 1053 2284 737 2584 
Q 422 2884 422 3419 
Q 422 4038 858 4394 
Q 1294 4750 2059 4750 
Q 2388 4750 2728 4690 
Q 3069 4631 3425 4513 
z
" transform="scale(0.015625)"/>
      <path id="DejaVuSans-74" d="M 1172 4494 
L 1172 3500 
L 2356 3500 
L 2356 3053 
L 1172 3053 
L 1172 1153 
Q 1172 725 1289 603 
Q 1406 481 1766 481 
L 2356 481 
L 2356 0 
L 1766 0 
Q 1100 0 847 248 
Q 594 497 594 1153 
L 594 3053 
L 172 3053 
L 172 3500 
L 594 3500 
L 594 4494 
L 1172 4494 
z
" transform="scale(0.015625)"/>
      <path id="DejaVuSans-73" d="M 2834 3397 
L 2834 2853 
Q 2591 2978 2328 3040 
Q 2066 3103 1784 3103 
Q 1356 3103 1142 2972 
Q 928 2841 928 2578 
Q 928 2378 1081 2264 
Q 1234 2150 1697 2047 
L 1894 2003 
Q 2506 1872 2764 1633 
Q 3022 1394 3022 966 
Q 3022 478 2636 193 
Q 2250 -91 1575 -91 
Q 1294 -91 989 -36 
Q 684 19 347 128 
L 347 722 
Q 666 556 975 473 
Q 1284 391 1588 391 
Q 1994 391 2212 530 
Q 2431 669 2431 922 
Q 2431 1156 2273 1281 
Q 2116 1406 1581 1522 
L 1381 1569 
Q 847 1681 609 1914 
Q 372 2147 372 2553 
Q 372 3047 722 3315 
Q 1072 3584 1716 3584 
Q 2034 3584 2315 3537 
Q 2597 3491 2834 3397 
z
" transform="scale(0.015625)"/>
      <path id="DejaVuSans-63" d="M 3122 3366 
L 3122 2828 
Q 2878 2963 2633 3030 
Q 2388 3097 2138 3097 
Q 1578 3097 1268 2742 
Q 959 2388 959 1747 
Q 959 1106 1268 751 
Q 1578 397 2138 397 
Q 2388 397 2633 464 
Q 2878 531 3122 666 
L 3122 134 
Q 2881 22 2623 -34 
Q 2366 -91 2075 -91 
Q 1284 -91 818 406 
Q 353 903 353 1747 
Q 353 2603 823 3093 
Q 1294 3584 2113 3584 
Q 2378 3584 2631 3529 
Q 2884 3475 3122 3366 
z
" transform="scale(0.015625)"/>
      <path id="DejaVuSans-6f" d="M 1959 3097 
Q 1497 3097 1228 2736 
Q 959 2375 959 1747 
Q 959 1119 1226 758 
Q 1494 397 1959 397 
Q 2419 397 2687 759 
Q 2956 1122 2956 1747 
Q 2956 2369 2687 2733 
Q 2419 3097 1959 3097 
z
M 1959 3584 
Q 2709 3584 3137 3096 
Q 3566 2609 3566 1747 
Q 3566 888 3137 398 
Q 2709 -91 1959 -91 
Q 1206 -91 779 398 
Q 353 888 353 1747 
Q 353 2609 779 3096 
Q 1206 3584 1959 3584 
z
" transform="scale(0.015625)"/>
      <path id="DejaVuSans-28" d="M 1984 4856 
Q 1566 4138 1362 3434 
Q 1159 2731 1159 2009 
Q 1159 1288 1364 580 
Q 1569 -128 1984 -844 
L 1484 -844 
Q 1016 -109 783 600 
Q 550 1309 550 2009 
Q 550 2706 781 3412 
Q 1013 4119 1484 4856 
L 1984 4856 
z
" transform="scale(0.015625)"/>
      <path id="DejaVuSans-3e" d="M 678 3150 
L 678 3719 
L 4684 2266 
L 4684 1747 
L 678 294 
L 678 863 
L 3897 2003 
L 678 3150 
z
" transform="scale(0.015625)"/>
      <path id="DejaVuSans-35" d="M 691 4666 
L 3169 4666 
L 3169 4134 
L 1269 4134 
L 1269 2991 
Q 1406 3038 1543 3061 
Q 1681 3084 1819 3084 
Q 2600 3084 3056 2656 
Q 3513 2228 3513 1497 
Q 3513 744 3044 326 
Q 2575 -91 1722 -91 
Q 1428 -91 1123 -41 
Q 819 9 494 109 
L 494 744 
Q 775 591 1075 516 
Q 1375 441 1709 441 
Q 2250 441 2565 725 
Q 2881 1009 2881 1497 
Q 2881 1984 2565 2268 
Q 2250 2553 1709 2553 
Q 1456 2553 1204 2497 
Q 953 2441 691 2322 
L 691 4666 
z
" transform="scale(0.015625)"/>
      <path id="DejaVuSans-29" d="M 513 4856 
L 1013 4856 
Q 1481 4119 1714 3412 
Q 1947 2706 1947 2009 
Q 1947 1309 1714 600 
Q 1481 -109 1013 -844 
L 513 -844 
Q 928 -128 1133 580 
Q 1338 1288 1338 2009 
Q 1338 2731 1133 3434 
Q 928 4138 513 4856 
z
" transform="scale(0.015625)"/>
     </defs>
     <use xlink:href="#DejaVuSans-42"/>
     <use xlink:href="#DejaVuSans-69" transform="translate(68.603516 0)"/>
     <use xlink:href="#DejaVuSans-6e" transform="translate(96.386719 0)"/>
     <use xlink:href="#DejaVuSans-61" transform="translate(159.765625 0)"/>
     <use xlink:href="#DejaVuSans-72" transform="translate(221.044922 0)"/>
     <use xlink:href="#DejaVuSans-79" transform="translate(262.158203 0)"/>
     <use xlink:href="#DejaVuSans-20" transform="translate(321.337891 0)"/>
     <use xlink:href="#DejaVuSans-52" transform="translate(353.125 0)"/>
     <use xlink:href="#DejaVuSans-4f" transform="translate(422.607422 0)"/>
     <use xlink:href="#DejaVuSans-43" transform="translate(501.318359 0)"/>
     <use xlink:href="#DejaVuSans-3a" transform="translate(571.142578 0)"/>
     <use xlink:href="#DejaVuSans-20" transform="translate(604.833984 0)"/>
     <use xlink:href="#DejaVuSans-48" transform="translate(636.621094 0)"/>
     <use xlink:href="#DejaVuSans-69" transform="translate(711.816406 0)"/>
     <use xlink:href="#DejaVuSans-67" transform="translate(739.599609 0)"/>
     <use xlink:href="#DejaVuSans-68" transform="translate(803.076172 0)"/>
     <use xlink:href="#DejaVuSans-20" transform="translate(866.455078 0)"/>
     <use xlink:href="#DejaVuSans-4c" transform="translate(898.242188 0)"/>
     <use xlink:href="#DejaVuSans-69" transform="translate(953.955078 0)"/>
     <use xlink:href="#DejaVuSans-66" transform="translate(981.738281 0)"/>
     <use xlink:href="#DejaVuSans-65" transform="translate(1016.943359 0)"/>
     <use xlink:href="#DejaVuSans-20" transform="translate(1078.466797 0)"/>
     <use xlink:href="#DejaVuSans-53" transform="translate(1110.253906 0)"/>
     <use xlink:href="#DejaVuSans-61" transform="translate(1173.730469 0)"/>
     <use xlink:href="#DejaVuSans-74" transform="translate(1235.009766 0)"/>
     <use xlink:href="#DejaVuSans-69" transform="translate(1274.21875 0)"/>
     <use xlink:href="#DejaVuSans-73" transform="translate(1302.001953 0)"/>
     <use xlink:href="#DejaVuSans-66" transform="translate(1354.101562 0)"/>
     <use xlink:href="#DejaVuSans-61" transform="translate(1389.306641 0)"/>
     <use xlink:href="#DejaVuSans-63" transform="translate(1450.585938 0)"/>
     <use xlink:href="#DejaVuSans-74" transform="translate(1505.566406 0)"/>
     <use xlink:href="#DejaVuSans-69" transform="translate(1544.775391 0)"/>
     <use xlink:href="#DejaVuSans-6f" transform="translate(1572.558594 0)"/>
     <use xlink:href="#DejaVuSans-6e" transform="translate(1633.740234 0)"/>
     <use xlink:href="#DejaVuSans-20" transform="translate(1697.119141 0)"/>
     <use xlink:href="#DejaVuSans-28" transform="translate(1728.90625 0)"/>
     <use xlink:href="#DejaVuSans-3e" transform="translate(1767.919922 0)"/>
     <use xlink:href="#DejaVuSans-35" transform="translate(1851.708984 0)"/>
     <use xlink:href="#DejaVuSans-29" transform="translate(1915.332031 0)"/>
    </g>
   </g>
   <g id="legend_1">
    <g id="patch_7">
     <path d="M 344.55 379.48 
L 511.4 379.48 
Q 513.4 379.48 513.4 377.48 
L 513.4 363.801875 
Q 513.4 361.801875 511.4 361.801875 
L 344.55 361.801875 
Q 342.55 361.801875 342.55 363.801875 
L 342.55 377.48 
Q 342.55 379.48 344.55 379.48 
z
" style="fill: #ffffff; opacity: 0.8; stroke: #cccccc; stroke-linejoin: miter"/>
    </g>
    <g id="line2d_15">
     <path d="M 346.55 369.900312 
L 356.55 369.900312 
L 366.55 369.900312 
" style="fill: none; stroke: #ff8c00; stroke-width: 2; stroke-linecap: square"/>
    </g>
    <g id="text_14">
     <!-- ROC curve (AUC = 0.8462) -->
     <g transform="translate(374.55 373.400312) scale(0.1 -0.1)">
      <defs>
       <path id="DejaVuSans-75" d="M 544 1381 
L 544 3500 
L 1119 3500 
L 1119 1403 
Q 1119 906 1312 657 
Q 1506 409 1894 409 
Q 2359 409 2629 706 
Q 2900 1003 2900 1516 
L 2900 3500 
L 3475 3500 
L 3475 0 
L 2900 0 
L 2900 538 
Q 2691 219 2414 64 
Q 2138 -91 1772 -91 
Q 1169 -91 856 284 
Q 544 659 544 1381 
z
M 1991 3584 
L 1991 3584 
z
" transform="scale(0.015625)"/>
       <path id="DejaVuSans-76" d="M 191 3500 
L 800 3500 
L 1894 563 
L 2988 3500 
L 3597 3500 
L 2284 0 
L 1503 0 
L 191 3500 
z
" transform="scale(0.015625)"/>
       <path id="DejaVuSans-41" d="M 2188 4044 
L 1331 1722 
L 3047 1722 
L 2188 4044 
z
M 1831 4666 
L 2547 4666 
L 4325 0 
L 3669 0 
L 3244 1197 
L 1141 1197 
L 716 0 
L 50 0 
L 1831 4666 
z
" transform="scale(0.015625)"/>
       <path id="DejaVuSans-55" d="M 556 4666 
L 1191 4666 
L 1191 1831 
Q 1191 1081 1462 751 
Q 1734 422 2344 422 
Q 2950 422 3222 751 
Q 3494 1081 3494 1831 
L 3494 4666 
L 4128 4666 
L 4128 1753 
Q 4128 841 3676 375 
Q 3225 -91 2344 -91 
Q 1459 -91 1007 375 
Q 556 841 556 1753 
L 556 4666 
z
" transform="scale(0.015625)"/>
       <path id="DejaVuSans-3d" d="M 678 2906 
L 4684 2906 
L 4684 2381 
L 678 2381 
L 678 2906 
z
M 678 1631 
L 4684 1631 
L 4684 1100 
L 678 1100 
L 678 1631 
z
" transform="scale(0.015625)"/>
      </defs>
      <use xlink:href="#DejaVuSans-52"/>
      <use xlink:href="#DejaVuSans-4f" transform="translate(69.482422 0)"/>
      <use xlink:href="#DejaVuSans-43" transform="translate(148.193359 0)"/>
      <use xlink:href="#DejaVuSans-20" transform="translate(218.017578 0)"/>
      <use xlink:href="#DejaVuSans-63" transform="translate(249.804688 0)"/>
      <use xlink:href="#DejaVuSans-75" transform="translate(304.785156 0)"/>
      <use xlink:href="#DejaVuSans-72" transform="translate(368.164062 0)"/>
      <use xlink:href="#DejaVuSans-76" transform="translate(409.277344 0)"/>
      <use xlink:href="#DejaVuSans-65" transform="translate(468.457031 0)"/>
      <use xlink:href="#DejaVuSans-20" transform="translate(529.980469 0)"/>
      <use xlink:href="#DejaVuSans-28" transform="translate(561.767578 0)"/>
      <use xlink:href="#DejaVuSans-41" transform="translate(600.78125 0)"/>
      <use xlink:href="#DejaVuSans-55" transform="translate(669.189453 0)"/>
      <use xlink:href="#DejaVuSans-43" transform="translate(742.382812 0)"/>
      <use xlink:href="#DejaVuSans-20" transform="translate(812.207031 0)"/>
      <use xlink:href="#DejaVuSans-3d" transform="translate(843.994141 0)"/>
      <use xlink:href="#DejaVuSans-20" transform="translate(927.783203 0)"/>
      <use xlink:href="#DejaVuSans-30" transform="translate(959.570312 0)"/>
      <use xlink:href="#DejaVuSans-2e" transform="translate(1023.193359 0)"/>
      <use xlink:href="#DejaVuSans-38" transform="translate(1054.980469 0)"/>
      <use xlink:href="#DejaVuSans-34" transform="translate(1118.603516 0)"/>
      <use xlink:href="#DejaVuSans-36" transform="translate(1182.226562 0)"/>
      <use xlink:href="#DejaVuSans-32" transform="translate(1245.849609 0)"/>
      <use xlink:href="#DejaVuSans-29" transform="translate(1309.472656 0)"/>
     </g>
    </g>
   </g>
  </g>
 </g>
 <defs>
  <clipPath id="p22ffcbc6ad">
   <rect x="72" y="51.84" width="446.4" height="332.64"/>
  </clipPath>
 </defs>
</svg>
